<?xml version="1.0" encoding="utf-8"?>
<svg xmlns="http://www.w3.org/2000/svg" viewBox="0 0 520 550" width="400px" height="400.927px" preserveAspectRatio="none"><defs><linearGradient gradientUnits="userSpaceOnUse" x1="209.462" y1="346.366" x2="209.462" y2="346.387" id="gradient-0"><stop offset="0" style="stop-color: rgb(63.137% 86.667% 91.373%)"/><stop offset="1" style="stop-color: rgb(27.696% 50.866% 55.257%)"/></linearGradient><linearGradient gradientUnits="userSpaceOnUse" x1="248.837" y1="286.978" x2="248.837" y2="408.391" id="gradient-1"><stop offset="0" style="stop-color: rgb(63.137% 86.667% 91.373%)"/><stop offset="1" style="stop-color: rgb(27.696% 50.866% 55.257%)"/></linearGradient><linearGradient gradientUnits="userSpaceOnUse" x1="293.314" y1="346.086" x2="293.314" y2="346.354" id="gradient-2"><stop offset="0" style="stop-color: rgb(63.137% 86.667% 91.373%)"/><stop offset="1" style="stop-color: rgb(27.696% 50.866% 55.257%)"/></linearGradient><linearGradient gradientUnits="userSpaceOnUse" x1="298.447" y1="329.338" x2="298.447" y2="330.305" id="gradient-3"><stop offset="0" style="stop-color: rgb(63.137% 86.667% 91.373%)"/><stop offset="1" style="stop-color: rgb(27.696% 50.866% 55.257%)"/></linearGradient><linearGradient gradientUnits="userSpaceOnUse" x1="247.121" y1="225.111" x2="247.121" y2="247.467" id="gradient-4"><stop offset="0" style="stop-color: rgb(63.137% 86.667% 91.373%)"/><stop offset="1" style="stop-color: rgb(27.696% 50.866% 55.257%)"/></linearGradient><linearGradient gradientUnits="userSpaceOnUse" x1="245.431" y1="304.935" x2="245.431" y2="321.131" id="gradient-5"><stop offset="0" style="stop-color: rgb(63.137% 86.667% 91.373%)"/><stop offset="1" style="stop-color: rgb(27.696% 50.866% 55.257%)"/></linearGradient><linearGradient gradientUnits="userSpaceOnUse" x1="197.476" y1="241.185" x2="197.476" y2="246.798" id="gradient-6"><stop offset="0" style="stop-color: rgb(63.137% 86.667% 91.373%)"/><stop offset="1" style="stop-color: rgb(27.696% 50.866% 55.257%)"/></linearGradient><linearGradient gradientUnits="userSpaceOnUse" x1="189.293" y1="225.099" x2="189.293" y2="343.706" id="gradient-7"><stop offset="0" style="stop-color: rgb(63.137% 86.667% 91.373%)"/><stop offset="1" style="stop-color: rgb(27.696% 50.866% 55.257%)"/></linearGradient><linearGradient gradientUnits="userSpaceOnUse" x1="221.484" y1="241.185" x2="221.484" y2="247.467" id="gradient-8"><stop offset="0" style="stop-color: rgb(63.137% 86.667% 91.373%)"/><stop offset="1" style="stop-color: rgb(27.696% 50.866% 55.257%)"/></linearGradient><linearGradient gradientUnits="userSpaceOnUse" x1="298.447" y1="286.965" x2="298.447" y2="330.305" id="gradient-9"><stop offset="0" style="stop-color: rgb(63.137% 86.667% 91.373%)"/><stop offset="1" style="stop-color: rgb(27.696% 50.866% 55.257%)"/></linearGradient><linearGradient gradientUnits="userSpaceOnUse" x1="310.713" y1="227.614" x2="310.713" y2="346.414" id="gradient-10"><stop offset="0" style="stop-color: rgb(63.137% 86.667% 91.373%)"/><stop offset="1" style="stop-color: rgb(27.696% 50.866% 55.257%)"/></linearGradient><linearGradient gradientUnits="userSpaceOnUse" x1="293.314" y1="346.086" x2="293.314" y2="346.354" id="gradient-11"><stop offset="0" style="stop-color: rgb(63.137% 86.667% 91.373%)"/><stop offset="1" style="stop-color: rgb(27.696% 50.866% 55.257%)"/></linearGradient><linearGradient gradientUnits="userSpaceOnUse" x1="294.445" y1="241.197" x2="294.445" y2="241.658" id="gradient-12"><stop offset="0" style="stop-color: rgb(63.137% 86.667% 91.373%)"/><stop offset="1" style="stop-color: rgb(27.696% 50.866% 55.257%)"/></linearGradient><linearGradient gradientUnits="userSpaceOnUse" x1="244.752" y1="247.442" x2="244.752" y2="322.699" id="gradient-13"><stop offset="0" style="stop-color: rgb(63.137% 86.667% 91.373%)"/><stop offset="1" style="stop-color: rgb(27.696% 50.866% 55.257%)"/></linearGradient><linearGradient gradientUnits="userSpaceOnUse" x1="219.747" y1="241.197" x2="219.747" y2="324.035" id="gradient-14"><stop offset="0" style="stop-color: rgb(63.137% 86.667% 91.373%)"/><stop offset="1" style="stop-color: rgb(27.696% 50.866% 55.257%)"/></linearGradient><linearGradient gradientUnits="userSpaceOnUse" x1="251.5" y1="165.551" x2="251.5" y2="286.965" id="gradient-15"><stop offset="0" style="stop-color: rgb(63.137% 86.667% 91.373%)"/><stop offset="1" style="stop-color: rgb(27.696% 50.866% 55.257%)"/></linearGradient><linearGradient gradientUnits="userSpaceOnUse" x1="298.447" y1="329.338" x2="298.447" y2="330.305" id="gradient-16"><stop offset="0" style="stop-color: rgb(63.137% 86.667% 91.373%)"/><stop offset="1" style="stop-color: rgb(27.696% 50.866% 55.257%)"/></linearGradient><linearGradient gradientUnits="userSpaceOnUse" x1="280.296" y1="247.514" x2="280.296" y2="330.305" id="gradient-17"><stop offset="0" style="stop-color: rgb(63.137% 86.667% 91.373%)"/><stop offset="1" style="stop-color: rgb(27.696% 50.866% 55.257%)"/></linearGradient><linearGradient gradientUnits="userSpaceOnUse" x1="189.317" y1="324.812" x2="189.317" y2="325.869" id="gradient-18"><stop offset="0" style="stop-color: rgb(63.137% 86.667% 91.373%)"/><stop offset="1" style="stop-color: rgb(27.696% 50.866% 55.257%)"/></linearGradient><linearGradient gradientUnits="userSpaceOnUse" x1="246.786" y1="286.832" x2="246.786" y2="346.414" id="gradient-19"><stop offset="0" style="stop-color: rgb(63.137% 86.667% 91.373%)"/><stop offset="1" style="stop-color: rgb(27.696% 50.866% 55.257%)"/></linearGradient><linearGradient gradientUnits="userSpaceOnUse" x1="253.074" y1="225.099" x2="253.074" y2="287.038" id="gradient-20"><stop offset="0" style="stop-color: rgb(63.137% 86.667% 91.373%)"/><stop offset="1" style="stop-color: rgb(27.696% 50.866% 55.257%)"/></linearGradient><clipPath clipPathUnits="userSpaceOnUse" id="clipPath462"><path d="M 0,500 H 500 V 0 H 0 Z" id="path460"/></clipPath><clipPath clipPathUnits="userSpaceOnUse" id="clipPath470"><path d="m 288.247,358.897 h 20.181 v -15.212 h -20.181 z" id="path468"/></clipPath><clipPath clipPathUnits="userSpaceOnUse" id="clipPath474"><path d="m 308.428,343.686 c -1.628,0.498 -3.317,0.911 -5.091,1.275 l -1.13,0.219 c -0.376,0.073 -0.753,0.133 -1.142,0.194 -0.401,0.073 -0.801,0.134 -1.203,0.195 -1.397,0.206 -2.831,0.376 -4.3,0.51 -1.458,0.133 -2.953,0.219 -4.484,0.267 -0.036,0.012 -0.085,0.012 -0.134,0.012 -0.06,0 -0.133,0 -0.194,0.013 -0.741,1.591 -1.579,3.086 -2.503,4.507 l 13.62,8.019 c 2.686,-4.265 4.993,-9.246 6.561,-15.211" id="path472"/></clipPath><mask maskUnits="userSpaceOnUse" x="0" y="0" width="1" height="1" id="mask486"><g id="g496"><g id="g494"><g id="g492"><g id="g490"><path d="M -32768,32767 H 32767 V -32768 H -32768 Z" style="fill:url(#linearGradient484);stroke:none" id="path488"/></g></g></g></g></mask><linearGradient x1="0" y1="0" x2="1" y2="0" gradientUnits="userSpaceOnUse" gradientTransform="matrix(3.6039977,-10.156721,-10.156721,-3.6039977,296.40707,353.02637)" spreadMethod="pad" id="linearGradient484"><stop style="stop-opacity:0;stop-color:#ffffff" offset="0" id="stop480"/><stop style="stop-opacity:1;stop-color:#ffffff" offset="1" id="stop482"/></linearGradient><linearGradient gradientUnits="userSpaceOnUse" x1="298.338" y1="343.686" x2="298.338" y2="358.897" id="gradient-21"><stop offset="0" style="stop-color: rgb(63.137% 86.667% 91.373%)"/><stop offset="1" style="stop-color: rgb(27.696% 50.866% 55.257%)"/></linearGradient><clipPath clipPathUnits="userSpaceOnUse" id="clipPath528"><path d="m 175.825,343.698 h 15.77 v -28.686 h -15.77 z" id="path526"/></clipPath><clipPath clipPathUnits="userSpaceOnUse" id="clipPath532"><path d="m 191.595,343.698 -0.012,-0.049 v -0.024 c -0.267,-0.753 -2.673,-8.153 -2.284,-17.788 -5.637,-2.916 -9.805,-6.84 -13.474,-10.825 l 5.929,24.725 c 2.952,1.543 6.208,2.891 9.841,3.961" id="path530"/></clipPath><mask maskUnits="userSpaceOnUse" x="0" y="0" width="1" height="1" id="mask544"><g id="g554"><g id="g552"><g id="g550"><g id="g548"><path d="M -32768,32767 H 32767 V -32768 H -32768 Z" style="fill:url(#linearGradient542);stroke:none" id="path546"/></g></g></g></g></mask><linearGradient x1="0" y1="0" x2="1" y2="0" gradientUnits="userSpaceOnUse" gradientTransform="matrix(12.286357,0.081909,0.081909,-12.286357,179.64066,329.32755)" spreadMethod="pad" id="linearGradient542"><stop style="stop-opacity:0;stop-color:#ffffff" offset="0" id="stop538"/><stop style="stop-opacity:1;stop-color:#ffffff" offset="1" id="stop540"/></linearGradient><linearGradient gradientUnits="userSpaceOnUse" x1="183.71" y1="315.012" x2="183.71" y2="343.698" id="gradient-22"><stop offset="0" style="stop-color: rgb(63.137% 86.667% 91.373%)"/><stop offset="1" style="stop-color: rgb(27.696% 50.866% 55.257%)"/></linearGradient><clipPath clipPathUnits="userSpaceOnUse" id="clipPath586"><path d="m 307.651,251.42 h 11.372 v -23.814 h -11.372 z" id="path584"/></clipPath><clipPath clipPathUnits="userSpaceOnUse" id="clipPath590"><path d="m 319.022,251.419 -1.494,-20.01 c -2.952,-1.482 -6.22,-2.783 -9.878,-3.804 0.498,1.556 0.936,3.184 1.313,4.873 0.036,0.146 0.06,0.28 0.085,0.425 0.862,3.924 1.373,8.189 1.543,12.721 3.231,1.652 5.977,3.633 8.431,5.795" id="path588"/></clipPath><mask maskUnits="userSpaceOnUse" x="0" y="0" width="1" height="1" id="mask602"><g id="g612"><g id="g610"><g id="g608"><g id="g606"><path d="M -32768,32767 H 32767 V -32768 H -32768 Z" style="fill:url(#linearGradient600);stroke:none" id="path604"/></g></g></g></g></mask><linearGradient x1="0" y1="0" x2="1" y2="0" gradientUnits="userSpaceOnUse" gradientTransform="matrix(-8.9280863,0.7371814,0.7371814,8.9280863,318.22336,239.10919)" spreadMethod="pad" id="linearGradient600"><stop style="stop-opacity:0;stop-color:#ffffff" offset="0" id="stop596"/><stop style="stop-opacity:1;stop-color:#ffffff" offset="1" id="stop598"/></linearGradient><linearGradient gradientUnits="userSpaceOnUse" x1="313.336" y1="227.605" x2="313.336" y2="251.419" id="gradient-23"><stop offset="0" style="stop-color: rgb(63.137% 86.667% 91.373%)"/><stop offset="1" style="stop-color: rgb(27.696% 50.866% 55.257%)"/></linearGradient><clipPath clipPathUnits="userSpaceOnUse" id="clipPath644"><path d="m 227.376,324.027 h 22.781 v -14.446 h -22.781 z" id="path642"/></clipPath><clipPath clipPathUnits="userSpaceOnUse" id="clipPath648"><path d="m 250.157,313.603 c -0.206,-0.207 -0.437,-0.426 -0.692,-0.669 -0.911,-0.899 -2.078,-2.017 -3.475,-3.353 l -18.614,4.155 c 0.159,0.146 0.329,0.292 0.486,0.45 2.43,2.284 4.787,4.52 6.792,6.415 0.231,0.218 0.438,0.425 0.657,0.631 0.121,0.11 0.23,0.219 0.339,0.316 0.146,0.146 0.292,0.28 0.438,0.426 0.814,0.777 1.531,1.47 2.138,2.053 1.41,-0.911 2.71,-1.896 3.925,-2.904 l 7.654,-7.181 z" id="path646"/></clipPath><mask maskUnits="userSpaceOnUse" x="0" y="0" width="1" height="1" id="mask660"><g id="g670"><g id="g668"><g id="g666"><g id="g664"><path d="M -32768,32767 H 32767 V -32768 H -32768 Z" style="fill:url(#linearGradient658);stroke:none" id="path662"/></g></g></g></g></mask><linearGradient x1="0" y1="0" x2="1" y2="0" gradientUnits="userSpaceOnUse" gradientTransform="matrix(6.2250876,8.2728138,8.2728138,-6.2250876,237.56267,312.06882)" spreadMethod="pad" id="linearGradient658"><stop style="stop-opacity:0;stop-color:#ffffff" offset="0" id="stop654"/><stop style="stop-opacity:1;stop-color:#ffffff" offset="1" id="stop656"/></linearGradient><linearGradient gradientUnits="userSpaceOnUse" x1="238.766" y1="309.581" x2="238.766" y2="324.027" id="gradient-24"><stop offset="0" style="stop-color: rgb(63.137% 86.667% 91.373%)"/><stop offset="1" style="stop-color: rgb(27.696% 50.866% 55.257%)"/></linearGradient><clipPath clipPathUnits="userSpaceOnUse" id="clipPath702"><path d="M 189.348,257.713 H 205.58 V 241.189 H 189.348 Z" id="path700"/></clipPath><clipPath clipPathUnits="userSpaceOnUse" id="clipPath706"><path d="m 205.58,241.263 v -0.074 c -0.268,0.025 -0.535,0.049 -0.79,0.085 -0.049,0 -0.097,0.012 -0.146,0.012 -8.468,1.107 -14.871,4.168 -15.224,4.338 -0.024,0.389 -0.036,0.777 -0.048,1.166 v 0.158 c -0.012,0.717 -0.024,1.447 -0.024,2.175 0,0.766 0.012,1.519 0.024,2.26 0.012,0.365 0.024,0.729 0.036,1.081 0.025,0.814 0.061,1.628 0.122,2.431 0.048,0.801 0.109,1.591 0.182,2.381 0.012,0.145 0.024,0.291 0.049,0.437 l 15.381,-8.59 c 0,-0.607 0.012,-1.203 0.025,-1.798 0.012,-0.498 0.024,-0.984 0.048,-1.471 0,-0.132 0.013,-0.266 0.025,-0.4 0.011,-0.547 0.048,-1.081 0.096,-1.616 0.037,-0.571 0.086,-1.13 0.146,-1.677 0.025,-0.279 0.049,-0.547 0.085,-0.813 v -0.013 c 0,-0.036 0,-0.061 0.013,-0.072" id="path704"/></clipPath><mask maskUnits="userSpaceOnUse" x="0" y="0" width="1" height="1" id="mask718"><g id="g728"><g id="g726"><g id="g724"><g id="g722"><path d="M -32768,32767 H 32767 V -32768 H -32768 Z" style="fill:url(#linearGradient716);stroke:none" id="path720"/></g></g></g></g></mask><linearGradient x1="0" y1="0" x2="1" y2="0" gradientUnits="userSpaceOnUse" gradientTransform="matrix(-4.3684821,-12.122539,-12.122539,4.3684821,199.29202,253.95207)" spreadMethod="pad" id="linearGradient716"><stop style="stop-opacity:0;stop-color:#ffffff" offset="0" id="stop712"/><stop style="stop-opacity:1;stop-color:#ffffff" offset="1" id="stop714"/></linearGradient><linearGradient gradientUnits="userSpaceOnUse" x1="197.464" y1="241.189" x2="197.464" y2="257.713" id="gradient-25"><stop offset="0" style="stop-color: rgb(63.137% 86.667% 91.373%)"/><stop offset="1" style="stop-color: rgb(27.696% 50.866% 55.257%)"/></linearGradient><clipPath clipPathUnits="userSpaceOnUse" id="clipPath760"><path d="m 192.348,227.606 h 28.407 v -14.823 h -28.407 z" id="path758"/></clipPath><clipPath clipPathUnits="userSpaceOnUse" id="clipPath764"><path d="m 220.755,212.783 -23.753,4.143 c -1.798,3.147 -3.402,6.682 -4.653,10.679 1.555,-0.449 3.183,-0.826 4.872,-1.154 0.048,-0.012 0.085,-0.012 0.133,-0.023 4.568,-0.9 9.404,-1.337 14.811,-1.337 -0.547,0 -1.082,0.012 -1.616,0.012 2.831,-5.054 6.5,-8.894 10.206,-12.32" id="path762"/></clipPath><mask maskUnits="userSpaceOnUse" x="0" y="0" width="1" height="1" id="mask776"><g id="g786"><g id="g784"><g id="g782"><g id="g780"><path d="M -32768,32767 H 32767 V -32768 H -32768 Z" style="fill:url(#linearGradient774);stroke:none" id="path778"/></g></g></g></g></mask><linearGradient x1="0" y1="0" x2="1" y2="0" gradientUnits="userSpaceOnUse" gradientTransform="matrix(-0.1092121,10.811995,10.811995,0.1092121,206.59525,215.87804)" spreadMethod="pad" id="linearGradient774"><stop style="stop-opacity:0;stop-color:#ffffff" offset="0" id="stop770"/><stop style="stop-opacity:1;stop-color:#ffffff" offset="1" id="stop772"/></linearGradient><linearGradient gradientUnits="userSpaceOnUse" x1="206.552" y1="212.783" x2="206.552" y2="227.605" id="gradient-26"><stop offset="0" style="stop-color: rgb(63.137% 86.667% 91.373%)"/><stop offset="1" style="stop-color: rgb(27.696% 50.866% 55.257%)"/></linearGradient><clipPath clipPathUnits="userSpaceOnUse" id="clipPath818"><path d="m 294.116,330.296 h 16.548 v -15.758 h -16.548 z" id="path816"/></clipPath><clipPath clipPathUnits="userSpaceOnUse" id="clipPath822"><path d="m 310.664,324.805 c 0,-0.766 -0.013,-1.519 -0.024,-2.26 -0.013,-0.365 -0.025,-0.717 -0.037,-1.082 -0.025,-0.838 -0.073,-1.664 -0.122,-2.49 l -16.366,-4.435 c 0.158,0.972 0.292,1.992 0.402,3.049 0.036,0.353 0.073,0.705 0.096,1.058 0.037,0.449 0.074,0.899 0.098,1.36 0.06,0.814 0.098,1.653 0.121,2.528 0.013,0.364 0.024,0.74 0.024,1.117 0.013,0.377 0.013,0.766 0.013,1.155 0,0.595 -0.013,1.178 -0.024,1.749 0,0.401 -0.013,0.802 -0.036,1.191 0,0.133 -0.013,0.267 -0.013,0.389 -0.025,0.68 -0.073,1.336 -0.121,1.992 0,0.061 0,0.109 -0.013,0.17 h 0.025 c 1.931,-0.182 3.766,-0.462 5.492,-0.814 0.679,-0.133 1.36,-0.182 2.041,-0.133 5.504,-1.312 8.431,-3.499 8.431,-3.499 0.013,-0.341 0.013,-0.693 0.013,-1.045" id="path820"/></clipPath><mask maskUnits="userSpaceOnUse" x="0" y="0" width="1" height="1" id="mask834"><g id="g844"><g id="g842"><g id="g840"><g id="g838"><path d="M -32768,32767 H 32767 V -32768 H -32768 Z" style="fill:url(#linearGradient832);stroke:none" id="path836"/></g></g></g></g></mask><linearGradient x1="0" y1="0" x2="1" y2="0" gradientUnits="userSpaceOnUse" gradientTransform="matrix(-0.9829085,14.743628,14.743628,0.9829085,302.71011,315.29489)" spreadMethod="pad" id="linearGradient832"><stop style="stop-opacity:0;stop-color:#ffffff" offset="0" id="stop828"/><stop style="stop-opacity:1;stop-color:#ffffff" offset="1" id="stop830"/></linearGradient><linearGradient gradientUnits="userSpaceOnUse" x1="302.39" y1="314.538" x2="302.39" y2="330.296" id="gradient-27"><stop offset="0" style="stop-color: rgb(63.137% 86.667% 91.373%)"/><stop offset="1" style="stop-color: rgb(27.696% 50.866% 55.257%)"/></linearGradient><clipPath clipPathUnits="userSpaceOnUse" id="clipPath876"><path d="m 249.939,267.141 h 16.123 v -19.634 h -16.123 z" id="path874"/></clipPath><clipPath clipPathUnits="userSpaceOnUse" id="clipPath880"><path d="m 266.062,251.954 c -1.555,-1.603 -3.001,-3.11 -4.301,-4.447 -0.304,0.195 -0.596,0.389 -0.887,0.596 -2.018,1.397 -3.791,2.903 -5.443,4.446 l -0.037,0.037 c -0.401,0.376 -0.838,0.789 -1.336,1.276 -1.166,1.142 -2.577,2.551 -4.119,4.131 0.559,0.583 1.154,1.202 1.774,1.846 0.206,0.219 0.425,0.438 0.632,0.657 l 0.218,0.218 c 0.559,0.571 1.142,1.179 1.738,1.798 0.036,0.037 0.072,0.073 0.109,0.11 0.595,0.619 1.215,1.263 1.847,1.92 0.097,0.097 0.194,0.194 0.291,0.291 0.729,0.753 1.482,1.531 2.236,2.309 z" id="path878"/></clipPath><mask maskUnits="userSpaceOnUse" x="0" y="0" width="1" height="1" id="mask892"><g id="g902"><g id="g900"><g id="g898"><g id="g896"><path d="M -32768,32767 H 32767 V -32768 H -32768 Z" style="fill:url(#linearGradient890);stroke:none" id="path894"/></g></g></g></g></mask><linearGradient x1="0" y1="0" x2="1" y2="0" gradientUnits="userSpaceOnUse" gradientTransform="matrix(-8.6823587,-7.6994505,-7.6994505,8.6823587,262.77319,259.54227)" spreadMethod="pad" id="linearGradient890"><stop style="stop-opacity:0;stop-color:#ffffff" offset="0" id="stop886"/><stop style="stop-opacity:1;stop-color:#ffffff" offset="1" id="stop888"/></linearGradient><linearGradient gradientUnits="userSpaceOnUse" x1="258.001" y1="247.507" x2="258.001" y2="267.142" id="gradient-28"><stop offset="0" style="stop-color: rgb(63.137% 86.667% 91.373%)"/><stop offset="1" style="stop-color: rgb(27.696% 50.866% 55.257%)"/></linearGradient><clipPath clipPathUnits="userSpaceOnUse" id="clipPath934"><path d="m 205.337,346.407 h 14.871 v -16.111 h -14.871 z" id="path932"/></clipPath><clipPath clipPathUnits="userSpaceOnUse" id="clipPath938"><path d="m 220.208,346.055 -10.801,-15.492 c -0.195,0 -0.377,-0.012 -0.559,-0.023 -0.535,-0.025 -1.069,-0.049 -1.604,-0.086 -0.34,-0.024 -0.68,-0.048 -1.02,-0.085 -0.304,-0.012 -0.596,-0.048 -0.888,-0.073 0,0.025 0.013,0.049 0.013,0.073 l 0.012,0.061 c 1.458,10.91 3.754,15.637 3.888,15.928 h 0.012 c 0.134,0.013 0.267,0.013 0.413,0.013 0.134,0.012 0.267,0.012 0.401,0.012 0.68,0.012 1.385,0.024 2.09,0.024 0.765,0 1.519,-0.012 2.26,-0.024 0.085,0 0.17,0 0.255,-0.012 0.279,0 0.547,-0.013 0.826,-0.025 0.838,-0.024 1.677,-0.073 2.491,-0.121 0.741,-0.049 1.482,-0.11 2.211,-0.17" id="path936"/></clipPath><mask maskUnits="userSpaceOnUse" x="0" y="0" width="1" height="1" id="mask950"><g id="g960"><g id="g958"><g id="g956"><g id="g954"><path d="M -32768,32767 H 32767 V -32768 H -32768 Z" style="fill:url(#linearGradient948);stroke:none" id="path952"/></g></g></g></g></mask><linearGradient x1="0" y1="0" x2="1" y2="0" gradientUnits="userSpaceOnUse" gradientTransform="matrix(-9.9929037,2.2115443,2.2115443,9.9929037,215.3326,337.60886)" spreadMethod="pad" id="linearGradient948"><stop style="stop-opacity:0;stop-color:#ffffff" offset="0" id="stop944"/><stop style="stop-opacity:1;stop-color:#ffffff" offset="1" id="stop946"/></linearGradient><linearGradient gradientUnits="userSpaceOnUse" x1="212.772" y1="330.296" x2="212.772" y2="346.407" id="gradient-29"><stop offset="0" style="stop-color: rgb(63.137% 86.667% 91.373%)"/><stop offset="1" style="stop-color: rgb(27.696% 50.866% 55.257%)"/></linearGradient><clipPath clipPathUnits="userSpaceOnUse" id="clipPath992"><path d="m 284.59,241.189 h 9.829 v -16.098 h -9.829 z" id="path990"/></clipPath><clipPath clipPathUnits="userSpaceOnUse" id="clipPath996"><path d="m 294.419,241.189 c 0,0 -0.012,-0.085 -0.036,-0.243 -0.268,-1.494 -1.847,-9.78 -4.921,-15.831 -0.194,-0.012 -0.316,-0.012 -0.498,-0.012 h -0.304 c -0.267,-0.012 -0.534,-0.012 -0.813,-0.012 -1.107,0 -2.188,0.024 -3.257,0.049 l 0.984,15.782 c 0.364,-0.012 0.741,-0.025 1.118,-0.025 0.376,-0.011 0.765,-0.011 1.155,-0.011 1.141,0 2.271,0.024 3.365,0.072 0.547,0.024 1.081,0.062 1.616,0.098 0.534,0.036 1.068,0.073 1.591,0.133" id="path994"/></clipPath><mask maskUnits="userSpaceOnUse" x="0" y="0" width="1" height="1" id="mask1008"><g id="g1018"><g id="g1016"><g id="g1014"><g id="g1012"><path d="M -32768,32767 H 32767 V -32768 H -32768 Z" style="fill:url(#linearGradient1006);stroke:none" id="path1010"/></g></g></g></g></mask><linearGradient x1="0" y1="0" x2="1" y2="0" gradientUnits="userSpaceOnUse" gradientTransform="matrix(9.8291807,0,0,-9.8291807,284.59012,233.14006)" spreadMethod="pad" id="linearGradient1006"><stop style="stop-opacity:0;stop-color:#ffffff" offset="0" id="stop1002"/><stop style="stop-opacity:1;stop-color:#ffffff" offset="1" id="stop1004"/></linearGradient><linearGradient gradientUnits="userSpaceOnUse" x1="289.505" y1="225.091" x2="289.505" y2="241.189" id="gradient-30"><stop offset="0" style="stop-color: rgb(63.137% 86.667% 91.373%)"/><stop offset="1" style="stop-color: rgb(27.696% 50.866% 55.257%)"/></linearGradient><clipPath clipPathUnits="userSpaceOnUse" id="clipPath1050"><path d="m 250.012,339.737 h 27.446 v -15.589 h -27.446 z" id="path1048"/></clipPath><clipPath clipPathUnits="userSpaceOnUse" id="clipPath1054"><path d="m 277.458,329.834 c -0.364,-0.048 -0.729,-0.109 -1.081,-0.182 -0.194,-0.036 -0.389,-0.072 -0.583,-0.109 -0.292,-0.049 -0.584,-0.109 -0.863,-0.17 -0.547,-0.122 -1.093,-0.243 -1.616,-0.377 -0.546,-0.145 -1.093,-0.291 -1.628,-0.449 -0.365,-0.097 -0.717,-0.207 -1.069,-0.328 -0.352,-0.11 -0.693,-0.231 -1.033,-0.353 -0.34,-0.121 -0.681,-0.242 -1.009,-0.376 -0.291,-0.11 -0.583,-0.219 -0.862,-0.353 -0.11,-0.036 -0.219,-0.073 -0.316,-0.121 -0.243,-0.109 -0.486,-0.207 -0.729,-0.328 -0.34,-0.146 -0.668,-0.292 -0.996,-0.462 -0.268,-0.122 -0.534,-0.255 -0.79,-0.401 -0.291,-0.146 -0.571,-0.291 -0.851,-0.45 -0.328,-0.182 -0.643,-0.352 -0.947,-0.546 -0.34,-0.195 -0.668,-0.401 -0.996,-0.608 -0.037,-0.024 -0.085,-0.048 -0.122,-0.073 -2.49,2.418 -4.52,4.387 -5.808,5.614 -0.449,0.559 -0.983,1.057 -1.567,1.458 -0.012,0.012 -0.012,0.012 -0.025,0.012 -0.206,0.194 -0.4,0.376 -0.594,0.546 -0.474,0.414 -0.936,0.815 -1.41,1.203 -0.765,0.644 -1.542,1.264 -2.333,1.847 -0.073,0.073 -0.133,0.122 -0.218,0.182 0.267,0.207 0.547,0.402 0.814,0.596 0.401,0.291 0.802,0.583 1.202,0.85 0.328,0.219 0.645,0.438 0.973,0.644 1.117,0.741 2.26,1.422 3.414,2.053 0.352,0.207 0.704,0.402 1.057,0.584 z" id="path1052"/></clipPath><mask maskUnits="userSpaceOnUse" x="0" y="0" width="1" height="1" id="mask1066"><g id="g1076"><g id="g1074"><g id="g1072"><g id="g1070"><path d="M -32768,32767 H 32767 V -32768 H -32768 Z" style="fill:url(#linearGradient1064);stroke:none" id="path1068"/></g></g></g></g></mask><linearGradient x1="0" y1="0" x2="1" y2="0" gradientUnits="userSpaceOnUse" gradientTransform="matrix(-11.712994,-10.402449,-10.402449,11.712994,267.60773,335.86203)" spreadMethod="pad" id="linearGradient1064"><stop style="stop-opacity:0;stop-color:#ffffff" offset="0" id="stop1060"/><stop style="stop-opacity:1;stop-color:#ffffff" offset="1" id="stop1062"/></linearGradient><linearGradient gradientUnits="userSpaceOnUse" x1="263.735" y1="324.148" x2="263.735" y2="339.737" id="gradient-31"><stop offset="0" style="stop-color: rgb(63.137% 86.667% 91.373%)"/><stop offset="1" style="stop-color: rgb(27.696% 50.866% 55.257%)"/></linearGradient><clipPath clipPathUnits="userSpaceOnUse" id="clipPath1108"><path d="m 235.098,247.454 h 14.908 v -17.07 h -14.908 z" id="path1106"/></clipPath><clipPath clipPathUnits="userSpaceOnUse" id="clipPath1112"><path d="m 238.148,247.454 c 0,0 8.642,-8.684 11.858,-10.934 0,0 -6.004,-4.412 -10.315,-6.136 l -4.593,15.284 z" id="path1110"/></clipPath><mask maskUnits="userSpaceOnUse" x="0" y="0" width="1" height="1" id="mask1124"><g id="g1134"><g id="g1132"><g id="g1130"><g id="g1128"><path d="M -32768,32767 H 32767 V -32768 H -32768 Z" style="fill:url(#linearGradient1122);stroke:none" id="path1126"/></g></g></g></g></mask><linearGradient x1="0" y1="0" x2="1" y2="0" gradientUnits="userSpaceOnUse" gradientTransform="matrix(6.5527234,4.5049973,4.5049973,-6.5527234,237.57573,237.65854)" spreadMethod="pad" id="linearGradient1122"><stop style="stop-opacity:0;stop-color:#ffffff" offset="0" id="stop1118"/><stop style="stop-opacity:1;stop-color:#ffffff" offset="1" id="stop1120"/></linearGradient><linearGradient gradientUnits="userSpaceOnUse" x1="242.552" y1="230.384" x2="242.552" y2="247.454" id="gradient-32"><stop offset="0" style="stop-color: rgb(63.137% 86.667% 91.373%)"/><stop offset="1" style="stop-color: rgb(27.696% 50.866% 55.257%)"/></linearGradient><clipPath clipPathUnits="userSpaceOnUse" id="clipPath1166"><path d="m 211.734,275.192 5.225,-5.461 17.406,4.572 -12.122,12.735 c 0,0 -9.072,-8.628 -10.509,-11.846" id="path1164"/></clipPath><mask maskUnits="userSpaceOnUse" x="0" y="0" width="1" height="1" id="mask1182"><g id="g1192"><g id="g1190"><g id="g1188"><g id="g1186"><path d="M -32768,32767 H 32767 V -32768 H -32768 Z" style="fill:url(#linearGradient1180);stroke:none" id="path1184"/></g></g></g></g></mask><linearGradient x1="0" y1="0" x2="1" y2="0" gradientUnits="userSpaceOnUse" gradientTransform="matrix(-6.2250872,10.975812,10.975812,6.2250872,224.4164,272.33813)" spreadMethod="pad" id="linearGradient1180"><stop style="stop-opacity:0;stop-color:#ffffff" offset="0" id="stop1176"/><stop style="stop-opacity:1;stop-color:#ffffff" offset="1" id="stop1178"/></linearGradient><linearGradient gradientUnits="userSpaceOnUse" x1="223.049" y1="269.731" x2="223.049" y2="287.038" id="gradient-33"><stop offset="0" style="stop-color: rgb(63.137% 86.667% 91.373%)"/><stop offset="1" style="stop-color: rgb(27.696% 50.866% 55.257%)"/></linearGradient><clipPath clipPathUnits="userSpaceOnUse" id="clipPath1212"><path d="m 194.365,298.035 c 2.096,-5.478 6.385,-11.057 6.385,-11.057 v 0 c 1.007,1.993 10.948,11.845 10.948,11.845 v 0 c -0.879,0.98 -2.005,3.488 -2.005,3.488 v 0 z" id="path1210"/></clipPath><mask maskUnits="userSpaceOnUse" x="0" y="0" width="1" height="1" id="mask1228"><g id="g1238"><g id="g1236"><g id="g1234"><g id="g1232"><path d="M -32768,32767 H 32767 V -32768 H -32768 Z" style="fill:url(#linearGradient1226);stroke:none" id="path1230"/></g></g></g></g></mask><linearGradient x1="0" y1="0" x2="1" y2="0" gradientUnits="userSpaceOnUse" gradientTransform="matrix(5.3513908,-10.538964,-10.538964,-5.3513908,201.47276,301.3183)" spreadMethod="pad" id="linearGradient1226"><stop style="stop-opacity:0;stop-color:#ffffff" offset="0" id="stop1222"/><stop style="stop-opacity:1;stop-color:#ffffff" offset="1" id="stop1224"/></linearGradient><linearGradient gradientUnits="userSpaceOnUse" x1="203.032" y1="286.978" x2="203.032" y2="302.311" id="gradient-34"><stop offset="0" style="stop-color: rgb(63.137% 86.667% 91.373%)"/><stop offset="1" style="stop-color: rgb(27.696% 50.866% 55.257%)"/></linearGradient><clipPath clipPathUnits="userSpaceOnUse" id="clipPath1258"><path d="m 264.834,299.32 13.01,-12.502 c 0,0 8.178,7.968 10.397,11.884 v 0 l -5.554,5.307 z" id="path1256"/></clipPath><mask maskUnits="userSpaceOnUse" x="0" y="0" width="1" height="1" id="mask1274"><g id="g1284"><g id="g1282"><g id="g1280"><g id="g1278"><path d="M -32768,32767 H 32767 V -32768 H -32768 Z" style="fill:url(#linearGradient1272);stroke:none" id="path1276"/></g></g></g></g></mask><linearGradient x1="0" y1="0" x2="1" y2="0" gradientUnits="userSpaceOnUse" gradientTransform="matrix(6.3109903,-11.127273,-11.127273,-6.3109903,275.15704,301.44601)" spreadMethod="pad" id="linearGradient1272"><stop style="stop-opacity:0;stop-color:#ffffff" offset="0" id="stop1268"/><stop style="stop-opacity:1;stop-color:#ffffff" offset="1" id="stop1270"/></linearGradient><linearGradient gradientUnits="userSpaceOnUse" x1="276.538" y1="286.818" x2="276.538" y2="304.009" id="gradient-35"><stop offset="0" style="stop-color: rgb(63.137% 86.667% 91.373%)"/><stop offset="1" style="stop-color: rgb(27.696% 50.866% 55.257%)"/></linearGradient><clipPath clipPathUnits="userSpaceOnUse" id="clipPath1304"><path d="m 288.391,275.033 c 0.804,-1.349 2.005,-3.487 2.005,-3.487 v 0 l 15.328,4.275 c -2.096,5.478 -6.462,11.144 -6.462,11.144 v 0 c -1.354,-2.155 -10.871,-11.932 -10.871,-11.932" id="path1302"/></clipPath><mask maskUnits="userSpaceOnUse" x="0" y="0" width="1" height="1" id="mask1320"><g id="g1330"><g id="g1328"><g id="g1326"><g id="g1324"><path d="M -32768,32767 H 32767 V -32768 H -32768 Z" style="fill:url(#linearGradient1318);stroke:none" id="path1322"/></g></g></g></g></mask><linearGradient x1="0" y1="0" x2="1" y2="0" gradientUnits="userSpaceOnUse" gradientTransform="matrix(-5.398304,10.631354,10.631354,5.398304,298.61346,272.53983)" spreadMethod="pad" id="linearGradient1318"><stop style="stop-opacity:0;stop-color:#ffffff" offset="0" id="stop1314"/><stop style="stop-opacity:1;stop-color:#ffffff" offset="1" id="stop1316"/></linearGradient><linearGradient gradientUnits="userSpaceOnUse" x1="297.057" y1="271.546" x2="297.057" y2="286.965" id="gradient-36"><stop offset="0" style="stop-color: rgb(63.137% 86.667% 91.373%)"/><stop offset="1" style="stop-color: rgb(27.696% 50.866% 55.257%)"/></linearGradient></defs><g id="g8" transform="matrix(1.3333300352096558, 0, 0, -1.3333300352096558, -74.95160023795961, 622.3700043912232)"><g id="g36"><g id="g38"><g id="g44"><g id="g46"><path d="m 209.255,346.378 v -0.012 c 0.134,0.012 0.268,0.012 0.414,0.012 v 0 c -0.073,0.006 -0.143,0.009 -0.211,0.009 v 0 c -0.069,0 -0.136,-0.003 -0.203,-0.009" style="stroke: none; paint-order: fill; fill: url(&quot;#gradient-0&quot;); fill-opacity: 0.84;" id="path54"/></g></g></g></g><g id="g56"><g id="g58"><g id="g64"><g id="g66"><path d="m 243.53,405.013 c -7.241,-10.376 -15.625,-17.264 -23.74,-23.922 v 0 c -11.518,-9.466 -23.401,-19.222 -28.188,-37.385 v 0 h -0.012 l -0.012,-0.049 v -0.024 c -0.268,-0.754 -2.673,-8.154 -2.285,-17.788 v 0 c 0.013,0.012 0.036,0.012 0.049,0.024 v 0 -1.057 c 0,-0.765 0.012,-1.519 0.024,-2.26 v 0 c 0.012,-0.364 0.025,-0.717 0.037,-1.081 v 0 c 0.024,-0.838 0.072,-1.664 0.122,-2.49 v 0 c 0.047,-0.779 0.109,-1.555 0.181,-2.321 v 0 c 0.013,-0.146 0.025,-0.292 0.049,-0.438 v 0 c 0.073,-0.789 0.158,-1.579 0.267,-2.344 v 0 c 0.11,-0.863 0.243,-1.714 0.389,-2.553 v 0 c 0.122,-0.74 0.255,-1.481 0.413,-2.198 v 0 c 0.025,-0.122 0.049,-0.243 0.073,-0.352 v 0 c 0.146,-0.693 0.304,-1.385 0.474,-2.066 v 0 c 0.061,-0.243 0.122,-0.486 0.194,-0.729 v 0 c 0.122,-0.51 0.267,-1.02 0.426,-1.519 v 0 c 0.084,-0.316 0.182,-0.632 0.279,-0.948 v 0 c 0.28,-0.911 0.583,-1.81 0.911,-2.684 v 0 c 0.134,-0.365 0.268,-0.729 0.413,-1.082 v 0 c 0.049,-0.133 0.098,-0.267 0.158,-0.389 v 0 c 0.267,-0.692 0.559,-1.372 0.863,-2.041 v 0 c 0,-0.012 0,-0.012 0.012,-0.024 v 0 c 0.134,-0.292 0.267,-0.571 0.401,-0.863 v 0 c 0.206,-0.437 0.413,-0.863 0.632,-1.288 v 0 c 0.17,-0.352 0.364,-0.704 0.546,-1.056 v 0 c 0.754,-1.398 1.568,-2.771 2.455,-4.12 v 0 c 0.195,-0.304 0.401,-0.607 0.607,-0.911 v 0 c 0.146,-0.219 0.292,-0.438 0.45,-0.656 v 0 c 0.219,-0.315 0.438,-0.62 0.656,-0.924 v 0 c 0.133,-0.169 0.255,-0.327 0.376,-0.497 v 0 c 1.35,1.798 2.819,3.547 4.423,5.273 v 0 c 0.037,0.036 0.073,0.085 0.11,0.121 v 0 c 0.146,0.159 0.279,0.316 0.436,0.474 v 0 c 0.269,0.267 0.523,0.547 0.79,0.814 v 0 c 0.122,0.122 0.232,0.231 0.352,0.352 v 0 c 1.349,1.385 3.002,3.013 4.837,4.811 v 0 c -0.243,0.365 -0.474,0.729 -0.693,1.107 v 0 c -0.036,0.035 -0.06,0.072 -0.073,0.108 v 0 c -0.206,0.341 -0.413,0.693 -0.607,1.058 v 0 c -0.219,0.389 -0.425,0.802 -0.632,1.215 v 0 c -0.511,1.008 -0.984,2.065 -1.41,3.195 v 0 c -0.206,0.51 -0.4,1.033 -0.583,1.579 v 0 c -0.157,0.475 -0.316,0.972 -0.462,1.471 v 0 c -0.121,0.413 -0.243,0.838 -0.351,1.275 v 0 c -0.11,0.365 -0.207,0.729 -0.28,1.094 v 0 c -0.012,0.061 -0.036,0.134 -0.049,0.206 v 0 c -0.073,0.291 -0.146,0.596 -0.206,0.9 v 0 c -0.11,0.498 -0.207,1.008 -0.304,1.542 v 0 c -0.133,0.742 -0.255,1.507 -0.352,2.297 v 0 c -0.061,0.449 -0.122,0.899 -0.17,1.373 v 0 c 0,0.024 0,0.048 -0.013,0.085 v 0 c -0.048,0.437 -0.084,0.874 -0.121,1.324 v 0 c -0.049,0.486 -0.086,0.972 -0.109,1.471 v 0 c -0.025,0.376 -0.049,0.765 -0.061,1.154 v 0 c -0.025,0.413 -0.037,0.826 -0.049,1.263 v 0 c -0.012,0.365 -0.024,0.741 -0.024,1.13 v 0 c -0.012,0.377 -0.012,0.753 -0.012,1.142 v 0 c 0,0.596 0.012,1.179 0.024,1.75 v 0 c 0,0.401 0.012,0.802 0.036,1.19 v 0 c 0.025,0.863 0.073,1.714 0.134,2.553 v 0 c 0,0.023 0.012,0.047 0.012,0.071 v 0 l 0.013,0.062 c 1.458,10.91 3.754,15.636 3.887,15.928 v 0 h 0.012 v 0.012 c 4.229,9.076 11.446,15.018 20.558,22.502 v 0 c 6.415,5.272 13.474,11.068 20.193,18.795 v 0 c 6.719,-7.739 13.779,-13.534 20.193,-18.807 v 0 c 3.22,-2.649 6.269,-5.152 9.052,-7.716 v 0 c 4.835,-4.446 8.771,-8.942 11.493,-14.774 v 0 c 0.061,-0.012 0.134,-0.012 0.195,-0.012 v 0 c 0.048,0 0.097,0 0.134,-0.012 v 0 c 1.53,-0.048 3.025,-0.134 4.482,-0.268 v 0 c 1.471,-0.133 2.905,-0.303 4.302,-0.509 v 0 c 0.401,-0.062 0.802,-0.123 1.203,-0.195 v 0 c 0.388,-0.061 0.765,-0.122 1.142,-0.194 v 0 l 1.13,-0.219 c 1.773,-0.364 3.462,-0.778 5.091,-1.276 v 0 c -3.658,13.899 -11.3,22.465 -18.468,29.074 v 0 c -3.111,2.88 -6.33,5.517 -9.733,8.311 v 0 c -8.116,6.658 -16.499,13.547 -23.74,23.935 v 0 c -0.729,1.057 -1.714,1.896 -2.819,2.479 v 0 c -1.117,0.583 -2.369,0.899 -3.657,0.899 v 0 c -2.588,0 -5.005,-1.263 -6.476,-3.378" style="stroke: none; paint-order: fill; fill: url(&quot;#gradient-1&quot;); fill-opacity: 0.84;" id="path74"/></g></g></g></g><g id="g76"><g id="g78"><g id="g84"><g id="g86"><path d="m 291.224,346.349 c -0.05,0.002 -0.101,0.004 -0.151,0.005 v 0 c 0.05,-10e-4 0.101,-0.003 0.151,-0.005 m 4.331,-0.263 c -1.409,0.13 -2.853,0.214 -4.331,0.263 v 0 c 1.489,-0.05 2.921,-0.145 4.331,-0.263" style="stroke: none; paint-order: fill; fill: url(&quot;#gradient-2&quot;); fill-opacity: 0.84;" id="path94"/></g></g></g></g><g id="g96"><g id="g98"><g id="g104"><g id="g106"><path d="m 300.172,329.49 c 0.682,-0.133 1.361,-0.183 2.042,-0.133 v 0 c -2.139,0.51 -4.653,0.886 -7.533,0.948 v 0 c 1.932,-0.183 3.766,-0.463 5.491,-0.815" style="stroke: none; paint-order: fill; fill: url(&quot;#gradient-3&quot;); fill-opacity: 0.84;" id="path114"/></g></g></g></g><g id="g116"><g id="g118"><g id="g124"><g id="g126"><path d="m 238.182,247.464 c 0.001,0.001 0.001,0.002 0.002,0.003 v 0 z m -0.034,-0.01 c -0.134,-0.096 -0.267,-0.183 -0.401,-0.267 v 0 c 0.146,0.084 0.28,0.171 0.413,0.255 v 0 l 0.022,0.022 c -0.011,-0.01 -0.023,-0.01 -0.034,-0.01 m -32.574,-6.269 h 0.012 c 0.049,0 0.11,-0.012 0.158,-0.012 v 0 c -0.048,0.012 -0.097,0.012 -0.158,0.024 v 0 h -0.012 c -0.268,0.025 -0.534,0.048 -0.79,0.085 v 0 c 0.256,-0.037 0.522,-0.06 0.79,-0.097 m 44.177,-4.859 0.255,0.181 c 0.486,-0.364 0.984,-0.729 1.47,-1.07 v 0 c -0.486,0.353 -0.984,0.718 -1.47,1.082 v 0 c -0.085,-0.073 -0.171,-0.133 -0.255,-0.193 m 5.285,-3.185 c 1.032,-0.619 2.077,-1.189 3.135,-1.725 v 0 c -1.058,0.547 -2.103,1.118 -3.135,1.725 v 0 c 0,0 0,0 0,0 m 33.922,-8.03 h 0.499 v 0.012 c -0.194,-0.012 -0.317,-0.012 -0.499,-0.012" style="stroke: none; paint-order: fill; fill: url(&quot;#gradient-4&quot;); fill-opacity: 0.84;" id="path134"/></g></g></g></g><g id="g136"><g id="g138"><g id="g144"><g id="g146"><path d="m 249.799,313.951 c -2.089,2.028 -3.766,3.632 -4.787,4.617 v 0 l -0.121,0.12 c -0.024,0.013 -0.061,0.05 -0.097,0.097 v 0 c -0.049,0.05 -0.097,0.086 -0.146,0.134 v 0 c -0.024,0.012 -0.049,0.037 -0.073,0.062 v 0 c -0.778,0.729 -1.58,1.445 -2.43,2.15 v 0 z m -5.613,-6.064 c 0.644,0.608 1.239,1.167 1.798,1.701 v 0 c -0.559,-0.522 -1.154,-1.093 -1.798,-1.701 m -3.122,-2.952 c 0.752,0.705 1.47,1.385 2.138,2.017 v 0 c -0.68,-0.632 -1.386,-1.3 -2.138,-2.017" style="stroke: none; paint-order: fill; fill: url(&quot;#gradient-5&quot;); fill-opacity: 0.84;" id="path154"/></g></g></g></g><g id="g156" transform="matrix(1, 0, 0, 1, -77.9223, -132.74)"><g id="g158"><g id="g164"><g id="g166"><path d="m 189.377,246.448 -0.011,0.35 c 0.004,-0.117 0.007,-0.233 0.011,-0.35 m 0.026,-0.816 h 0.012 c -0.017,0.272 -0.028,0.544 -0.038,0.816 v 0 z m 16.171,-4.435 c -0.268,0.025 -0.534,0.048 -0.79,0.085 v 0 c 0.256,-0.037 0.522,-0.06 0.79,-0.097 v 0 h 0.012 v 0.012 c -0.012,0.048 -0.012,0.085 -0.024,0.146 v 0 c 0,-0.061 0.012,-0.098 0.012,-0.146" style="stroke: none; paint-order: fill; fill: url(&quot;#gradient-6&quot;); fill-opacity: 0.84;" id="path174"/></g></g></g></g><g id="g176"><g id="g178"><g id="g184"><g id="g186"><path d="m 164.204,325.723 c -2.867,-3.122 -5.516,-6.342 -8.311,-9.744 v 0 c -6.658,-8.103 -13.547,-16.499 -23.934,-23.728 v 0 c -2.115,-1.483 -3.379,-3.9 -3.379,-6.488 v 0 c 0,-2.576 1.264,-4.994 3.379,-6.477 v 0 c 10.387,-7.24 17.264,-15.624 23.922,-23.728 v 0 c 9.295,-11.323 18.881,-23.012 36.462,-27.944 v 0 c 1.555,-0.449 3.184,-0.827 4.872,-1.155 v 0 c 0.049,-0.012 0.086,-0.012 0.133,-0.024 v 0 c 4.569,-0.899 9.405,-1.336 14.811,-1.336 v 0 h 0.037 c 0.753,0 1.495,0.012 2.224,0.024 v 0 c 0.364,0.012 0.728,0.025 1.081,0.036 v 0 c 0.838,0.025 1.676,0.073 2.49,0.121 v 0 c 0.741,0.049 1.483,0.11 2.212,0.171 v 0 c 0.219,0.023 0.437,0.048 0.643,0.061 v 0 c 0.765,0.073 1.519,0.169 2.26,0.267 v 0 c 0.863,0.109 1.713,0.242 2.552,0.389 v 0 c 0.741,0.121 1.47,0.255 2.187,0.413 v 0 c 0.17,0.025 0.34,0.061 0.498,0.109 v 0 c 0.631,0.122 1.263,0.267 1.883,0.425 v 0 c 0.268,0.074 0.522,0.134 0.778,0.207 v 0 c 0.51,0.121 1.021,0.267 1.518,0.425 v 0 c 0.316,0.085 0.632,0.183 0.948,0.28 v 0 c 0.912,0.279 1.798,0.582 2.686,0.91 v 0 c 1.202,0.45 2.381,0.924 3.535,1.447 v 0 c 0.121,0.06 0.243,0.11 0.364,0.17 v 0 c 0.426,0.194 0.838,0.401 1.264,0.607 v 0 c 0.839,0.413 1.665,0.839 2.478,1.3 v 0 c 0.402,0.231 0.791,0.45 1.179,0.68 v 0 c 0.012,0.012 0.025,0.025 0.036,0.025 v 0 c 0.681,0.401 1.349,0.826 2.005,1.251 v 0 c 0.171,0.11 0.316,0.207 0.474,0.317 v 0 c 0.765,0.509 1.519,1.044 2.26,1.592 v 0 c 0.084,0.06 0.17,0.12 0.255,0.193 v 0 c -1.798,1.337 -3.547,2.819 -5.274,4.423 v 0 c -0.035,0.037 -0.084,0.073 -0.121,0.109 v 0 c -0.012,0 -0.012,0 -0.023,0.012 v 0 c -0.475,0.449 -0.985,0.936 -1.556,1.494 v 0 c -1.397,1.362 -3.05,3.014 -4.872,4.885 v 0 c -0.133,-0.084 -0.267,-0.171 -0.413,-0.255 v 0 c -0.838,-0.535 -1.713,-1.045 -2.649,-1.519 v 0 c -0.522,-0.279 -1.069,-0.547 -1.628,-0.789 v 0 c -0.303,-0.147 -0.619,-0.281 -0.935,-0.414 v 0 c -0.304,-0.133 -0.62,-0.267 -0.936,-0.389 v 0 c -0.668,-0.266 -1.373,-0.51 -2.09,-0.741 v 0 c -0.34,-0.121 -0.692,-0.231 -1.045,-0.328 v 0 c -0.024,-0.012 -0.048,-0.023 -0.073,-0.023 v 0 c -1.093,-0.329 -2.235,-0.62 -3.438,-0.876 v 0 c -0.51,-0.109 -1.02,-0.207 -1.555,-0.303 v 0 c -0.595,-0.11 -1.202,-0.207 -1.834,-0.293 v 0 c -0.147,-0.024 -0.293,-0.048 -0.45,-0.06 v 0 c -0.45,-0.06 -0.911,-0.121 -1.374,-0.17 v 0 c -0.46,-0.049 -0.935,-0.097 -1.421,-0.133 v 0 c -0.473,-0.05 -0.96,-0.086 -1.458,-0.11 v 0 c -0.364,-0.024 -0.729,-0.049 -1.105,-0.06 v 0 c -0.074,-0.013 -0.158,-0.013 -0.243,-0.013 v 0 c -0.353,-0.012 -0.717,-0.024 -1.093,-0.036 v 0 c -0.365,-0.012 -0.742,-0.024 -1.119,-0.024 v 0 c -0.376,-0.013 -0.753,-0.013 -1.142,-0.013 v 0 c -1.166,0 -2.296,0.025 -3.39,0.073 v 0 c -0.546,0.024 -1.093,0.049 -1.628,0.097 v 0 c -0.413,0.024 -0.826,0.061 -1.226,0.097 v 0 c -0.062,0 -0.11,0 -0.171,0.013 v 0 c -0.048,0 -0.109,0.012 -0.158,0.012 v 0 h -0.012 c -0.268,0.037 -0.534,0.06 -0.79,0.097 v 0 c -0.048,0 -0.097,0.012 -0.146,0.012 v 0 c -8.468,1.106 -14.871,4.168 -15.223,4.338 v 0 h -0.012 c -8.529,4.385 -14.398,11.53 -21.311,19.95 v 0 c -5.261,6.402 -11.056,13.462 -18.796,20.181 v 0 c 7.74,6.718 13.535,13.778 18.808,20.193 v 0 c 2.649,3.232 5.151,6.281 7.716,9.064 v 0 c 3.668,3.984 7.836,7.909 13.473,10.825 v 0 c -0.388,9.634 2.017,17.034 2.285,17.788 v 0 0.024 l 0.012,0.049 c -12.953,-3.816 -21.081,-11.142 -27.386,-17.983" style="stroke: none; paint-order: fill; fill: url(&quot;#gradient-7&quot;); fill-opacity: 0.84;" id="path194"/></g></g></g></g><g id="g196" transform="matrix(1, 0, 0, 1, -77.9223, -132.74)"><g id="g198"><g id="g204"><g id="g206"><path d="m 238.182,247.464 c 0.001,0.001 0.001,0.002 0.002,0.003 v 0 z m -0.034,-0.01 0.012,-0.012 0.022,0.022 c -0.011,-0.01 -0.023,-0.01 -0.034,-0.01 m -32.574,-6.269 v 0.012 c -0.268,0.025 -0.534,0.048 -0.79,0.085 v 0 c 0.256,-0.037 0.522,-0.06 0.79,-0.097" style="stroke: none; paint-order: fill; fill: url(&quot;#gradient-8&quot;); fill-opacity: 0.84;" id="path214"/></g></g></g></g><g id="g216"><g id="g218"><g id="g224"><g id="g226"><path d="m 300.172,329.49 c 0.682,-0.133 1.361,-0.183 2.042,-0.133 v 0 c -2.139,0.51 -4.653,0.886 -7.533,0.948 v 0 c 1.932,-0.183 3.766,-0.463 5.491,-0.815 m -0.923,-42.512 c 0,0 0,-0.013 0.013,-0.013 v 0 c 0.243,0.328 0.485,0.669 0.716,0.997 v 0 z" style="stroke: none; paint-order: fill; fill: url(&quot;#gradient-9&quot;); fill-opacity: 0.84;" id="path234"/></g></g></g></g><g id="g236"><g id="g238"><g id="g244"><g id="g246"><path d="m 285.581,346.39 c -0.366,-0.012 -0.717,-0.024 -1.082,-0.036 v 0 c -0.838,-0.024 -1.664,-0.074 -2.49,-0.121 v 0 c -0.778,-0.05 -1.556,-0.11 -2.321,-0.183 v 0 c -0.146,-0.012 -0.303,-0.024 -0.461,-0.049 v 0 c -0.79,-0.073 -1.556,-0.157 -2.32,-0.267 v 0 c -0.098,-0.012 -0.196,-0.024 -0.293,-0.036 v 0 c -0.643,-0.085 -1.275,-0.183 -1.907,-0.292 v 0 c -0.267,-0.036 -0.522,-0.085 -0.779,-0.134 v 0 c -0.096,-0.012 -0.194,-0.036 -0.29,-0.048 v 0 c -0.596,-0.109 -1.191,-0.219 -1.775,-0.352 v 0 c -0.814,-0.17 -1.628,-0.353 -2.429,-0.56 v 0 c -0.036,-0.012 -0.074,-0.023 -0.11,-0.023 v 0 c -0.741,-0.195 -1.482,-0.402 -2.21,-0.62 v 0 c -0.389,-0.122 -0.791,-0.243 -1.192,-0.377 v 0 c -0.389,-0.122 -0.765,-0.255 -1.154,-0.388 v 0 c -0.45,-0.147 -0.899,-0.316 -1.348,-0.486 v 0 c -0.523,-0.195 -1.033,-0.402 -1.543,-0.608 v 0 c -0.207,-0.085 -0.414,-0.17 -0.62,-0.267 v 0 c -0.402,-0.17 -0.801,-0.341 -1.203,-0.523 v 0 c -0.876,-0.401 -1.738,-0.826 -2.588,-1.276 v 0 c -0.353,-0.182 -0.704,-0.377 -1.057,-0.583 v 0 c -1.154,-0.631 -2.297,-1.312 -3.414,-2.053 v 0 c -0.328,-0.207 -0.644,-0.425 -0.973,-0.644 v 0 c -0.4,-0.267 -0.801,-0.559 -1.202,-0.85 v 0 c -0.267,-0.195 -0.546,-0.389 -0.814,-0.596 v 0 c 0.085,-0.061 0.145,-0.109 0.218,-0.182 v 0 c 0.79,-0.583 1.568,-1.203 2.334,-1.847 v 0 c 0.473,-0.389 0.935,-0.79 1.408,-1.203 v 0 c 0.195,-0.17 0.389,-0.352 0.596,-0.546 v 0 c 0.012,0 0.012,0 0.025,-0.013 v 0 c 0.583,-0.4 1.117,-0.899 1.567,-1.457 v 0 c 1.287,-1.228 3.317,-3.196 5.808,-5.613 v 0 c 0.036,0.023 0.085,0.047 0.121,0.072 v 0 c 0.328,0.207 0.657,0.413 0.996,0.607 v 0 c 0.304,0.194 0.62,0.366 0.949,0.547 v 0 c 0.279,0.158 0.558,0.304 0.85,0.45 v 0 c 0.255,0.145 0.522,0.279 0.789,0.401 v 0 c 0.328,0.17 0.656,0.316 0.996,0.461 v 0 c 0.243,0.122 0.487,0.219 0.73,0.328 v 0 c 0.096,0.05 0.206,0.086 0.315,0.122 v 0 c 0.28,0.134 0.571,0.243 0.864,0.352 v 0 c 0.327,0.134 0.668,0.255 1.007,0.377 v 0 c 0.341,0.122 0.681,0.243 1.033,0.352 v 0 c 0.353,0.122 0.705,0.231 1.069,0.328 v 0 c 0.535,0.158 1.082,0.304 1.628,0.45 v 0 c 0.523,0.134 1.069,0.255 1.617,0.376 v 0 c 0.279,0.061 0.57,0.122 0.862,0.171 v 0 c 0.194,0.036 0.389,0.072 0.583,0.109 v 0 c 0.353,0.073 0.716,0.133 1.081,0.182 v 0 c 0.341,0.061 0.694,0.122 1.045,0.158 v 0 c 0.231,0.049 0.475,0.073 0.717,0.098 v 0 c 0.705,0.097 1.435,0.182 2.175,0.242 v 0 c 0.279,0.025 0.559,0.049 0.838,0.073 v 0 c 0.305,0.025 0.62,0.049 0.948,0.061 v 0 c 0.377,0.025 0.753,0.048 1.142,0.061 v 0 c 0.425,0.024 0.851,0.036 1.275,0.048 v 0 c 0.365,0.013 0.73,0.025 1.107,0.025 v 0 c 0.376,0.012 0.753,0.012 1.142,0.012 v 0 c 0.947,0 1.871,-0.012 2.782,-0.049 v 0 c 0.182,0 0.364,-0.012 0.534,-0.024 v 0 c 0.547,-0.025 1.082,-0.048 1.605,-0.085 v 0 c 0.327,-0.024 0.655,-0.049 0.983,-0.073 v 0 c 0.304,-0.024 0.607,-0.049 0.912,-0.084 v 0 h 0.024 c 2.88,-0.062 5.394,-0.438 7.533,-0.948 v 0 c 5.504,-1.313 8.432,-3.5 8.432,-3.5 v 0 c 8.505,-4.386 14.349,-11.493 21.251,-19.901 v 0 c 5.272,-6.415 11.068,-13.475 18.794,-20.193 v 0 c -7.726,-6.719 -13.522,-13.779 -18.794,-20.194 v 0 c -2.65,-3.219 -5.153,-6.269 -7.728,-9.063 v 0 c -3.693,-4.01 -7.886,-7.971 -13.584,-10.874 v 0 c -0.17,-4.533 -0.68,-8.797 -1.543,-12.721 v 0 c -0.024,-0.147 -0.049,-0.279 -0.085,-0.426 v 0 c -0.377,-1.688 -0.814,-3.316 -1.313,-4.871 v 0 c 13.402,3.742 21.713,11.214 28.152,18.199 v 0 c 2.867,3.111 5.516,6.331 8.31,9.733 v 0 c 6.658,8.116 13.548,16.5 23.936,23.74 v 0 c 2.114,1.483 3.378,3.901 3.378,6.477 v 0 c 0,2.588 -1.264,5.005 -3.378,6.488 v 0 c -10.388,7.229 -17.278,15.612 -23.936,23.728 v 0 c -9.161,11.154 -18.613,22.648 -35.683,27.714 v 0 c -1.629,0.498 -3.318,0.912 -5.091,1.276 v 0 l -1.13,0.219 c -0.377,0.072 -0.754,0.133 -1.142,0.194 v 0 c -0.401,0.072 -0.802,0.133 -1.203,0.195 v 0 c -1.397,0.206 -2.831,0.376 -4.302,0.509 v 0 c -1.457,0.122 -2.94,0.22 -4.482,0.268 v 0 c -0.037,0.012 -0.086,0.012 -0.134,0.012 v 0 c -0.134,0 -0.267,0.012 -0.401,0.012 v 0 h -0.109 c -0.158,0 -0.328,0.012 -0.499,0.012 v 0 c -0.692,0.012 -1.384,0.024 -2.089,0.024 v 0 c -0.766,0 -1.519,-0.012 -2.26,-0.024" style="stroke: none; paint-order: fill; fill: url(&quot;#gradient-10&quot;); fill-opacity: 0.84;" id="path254"/></g></g></g></g><g id="g256"><g id="g258"><g id="g264"><g id="g266"><path d="m 291.224,346.349 c -0.05,0.002 -0.101,0.004 -0.151,0.005 v 0 c 0.05,-10e-4 0.101,-0.003 0.151,-0.005 m 4.331,-0.263 c -1.409,0.13 -2.853,0.214 -4.331,0.263 v 0 c 1.489,-0.05 2.921,-0.145 4.331,-0.263" style="stroke: none; paint-order: fill; fill: url(&quot;#gradient-11&quot;); fill-opacity: 0.84;" id="path274"/></g></g></g></g><g id="g276" transform="matrix(1, 0, 0, 1, -77.9223, -132.74)"><g id="g278"><g id="g284"><g id="g286"><path d="m 294.414,241.197 h 0.012 c 0.013,0.146 0.036,0.304 0.049,0.461 v 0 c -0.013,-0.157 -0.036,-0.315 -0.061,-0.461" style="stroke: none; paint-order: fill; fill: url(&quot;#gradient-12&quot;); fill-opacity: 0.84;" id="path294"/></g></g></g></g><g id="g296"><g id="g298"><g id="g304"><g id="g306"><path d="m 266.178,320.062 c -0.935,0.91 -1.847,1.798 -2.71,2.637 v 0 c 0.863,-0.852 1.775,-1.738 2.71,-2.637 m -16.379,-6.111 c -2.089,2.028 -3.766,3.632 -4.787,4.617 v 0 l -0.121,0.12 c -0.024,0.013 -0.061,0.05 -0.097,0.097 v 0 c -0.049,0.05 -0.097,0.086 -0.146,0.134 v 0 c -0.024,0.012 -0.049,0.037 -0.073,0.062 v 0 c -0.778,0.729 -1.58,1.445 -2.43,2.15 v 0 z m -38.101,-15.128 v -0.011 c 0.583,0.571 1.19,1.153 1.81,1.761 v 0 c -0.62,-0.595 -1.227,-1.178 -1.81,-1.75 m 66.041,-11.936 c -0.002,0.002 -0.004,0.004 -0.006,0.006 v 0 c 0.002,-0.002 0.004,-0.004 0.006,-0.006 m 0.066,-0.067 v 0.012 c -0.022,0.01 -0.044,0.032 -0.066,0.055 v 0 c 0.022,-0.023 0.044,-0.045 0.066,-0.067 M 249.921,258.012 249.933,258 c 0.559,0.583 1.155,1.203 1.774,1.847 v 0 c -0.632,-0.644 -1.227,-1.251 -1.786,-1.835 m -11.739,-10.548 c 0.001,0.001 0.001,0.002 0.002,0.003 v 0 z m -0.034,-0.01 0.012,-0.012 0.022,0.022 c -0.011,-0.01 -0.023,-0.01 -0.034,-0.01" style="stroke: none; paint-order: fill; fill: url(&quot;#gradient-13&quot;); fill-opacity: 0.84;" id="path314"/></g></g></g></g><g id="g316"><g id="g318"><g id="g324"><g id="g326"><path d="m 236.083,321.981 c -0.146,-0.146 -0.293,-0.28 -0.438,-0.425 v 0 c -0.11,-0.097 -0.219,-0.207 -0.34,-0.315 v 0 c -0.219,-0.207 -0.426,-0.414 -0.657,-0.632 v 0 c -2.004,-1.897 -4.361,-4.131 -6.791,-6.415 v 0 c -3.803,-3.585 -7.848,-7.4 -11.555,-10.935 v 0 c -0.304,-0.292 -0.595,-0.572 -0.874,-0.839 v 0 c -0.328,-0.316 -0.644,-0.619 -0.96,-0.924 v 0 c -0.328,-0.316 -0.644,-0.619 -0.96,-0.923 v 0 c -0.62,-0.608 -1.227,-1.19 -1.81,-1.761 v 0 0.011 c -1.835,-1.798 -3.488,-3.426 -4.837,-4.811 v 0 c -0.12,-0.121 -0.23,-0.23 -0.352,-0.352 v 0 c -0.267,-0.267 -0.521,-0.547 -0.79,-0.814 v 0 c -0.157,-0.158 -0.29,-0.315 -0.436,-0.474 v 0 c -0.037,-0.036 -0.073,-0.085 -0.11,-0.121 v 0 c -1.604,-1.726 -3.073,-3.475 -4.423,-5.273 v 0 c -0.121,-0.171 -0.243,-0.341 -0.376,-0.498 v 0 c -0.218,-0.316 -0.437,-0.62 -0.656,-0.924 v 0 c -0.146,-0.218 -0.304,-0.438 -0.45,-0.656 v 0 c -0.206,-0.304 -0.412,-0.595 -0.607,-0.899 v 0 c -0.304,-0.474 -0.608,-0.947 -0.887,-1.422 v 0 c -0.146,-0.206 -0.268,-0.413 -0.389,-0.632 v 0 c -0.716,-1.203 -1.373,-2.417 -1.992,-3.669 v 0 c -0.17,-0.353 -0.341,-0.692 -0.499,-1.045 v 0 c -0.085,-0.182 -0.17,-0.376 -0.267,-0.57 v 0 c -0.303,-0.693 -0.608,-1.385 -0.899,-2.103 v 0 c -0.036,-0.109 -0.085,-0.23 -0.134,-0.364 v 0 c -0.145,-0.352 -0.279,-0.717 -0.413,-1.081 v 0 c -0.17,-0.462 -0.34,-0.924 -0.498,-1.398 v 0 c -0.146,-0.425 -0.279,-0.862 -0.413,-1.288 v 0 c -0.097,-0.316 -0.195,-0.632 -0.279,-0.947 v 0 c -0.159,-0.498 -0.304,-1.008 -0.426,-1.519 v 0 c -0.072,-0.243 -0.133,-0.486 -0.194,-0.729 v 0 c -0.158,-0.644 -0.315,-1.3 -0.45,-1.968 v 0 c -0.036,-0.146 -0.072,-0.304 -0.097,-0.462 v 0 c -0.158,-0.717 -0.291,-1.446 -0.413,-2.187 v 0 c -0.146,-0.838 -0.279,-1.689 -0.389,-2.551 v 0 c -0.109,-0.766 -0.194,-1.555 -0.267,-2.346 v 0 c -0.024,-0.144 -0.036,-0.291 -0.049,-0.437 v 0 c -0.072,-0.789 -0.134,-1.579 -0.181,-2.381 v 0 c -0.061,-0.802 -0.098,-1.616 -0.122,-2.429 v 0 c -0.012,-0.353 -0.025,-0.718 -0.037,-1.082 v 0 c -0.012,-0.742 -0.024,-1.494 -0.024,-2.26 v 0 c 0,-0.729 0.012,-1.458 0.024,-2.175 v 0 -0.158 c 0.012,-0.389 0.025,-0.778 0.049,-1.166 v 0 c 0.352,-0.17 6.755,-3.232 15.223,-4.338 v 0 c 0.049,0 0.098,-0.012 0.146,-0.012 v 0 c 0.256,-0.037 0.522,-0.06 0.79,-0.085 v 0 0.072 c -0.012,0.013 -0.012,0.037 -0.012,0.074 v 0 0.012 c -0.036,0.267 -0.061,0.534 -0.085,0.814 v 0 c -0.061,0.547 -0.11,1.106 -0.146,1.677 v 0 c -0.048,0.534 -0.085,1.069 -0.097,1.616 v 0 c -0.012,0.134 -0.024,0.267 -0.024,0.4 v 0 c -0.025,0.487 -0.037,0.973 -0.049,1.471 v 0 c -0.012,0.595 -0.024,1.19 -0.024,1.798 v 0 c 0,0.389 0,0.766 0.012,1.154 v 0 c 0,0.377 0.012,0.754 0.024,1.117 v 0 c 0.024,0.899 0.061,1.787 0.121,2.637 v 0 c 0.025,0.425 0.062,0.839 0.098,1.252 v 0 c 0.024,0.304 0.048,0.608 0.085,0.911 v 0 c 0.036,0.413 0.085,0.826 0.133,1.227 v 0 c 0.025,0.218 0.062,0.45 0.086,0.657 v 0 c 0.06,0.449 0.12,0.886 0.194,1.324 v 0 c 0.085,0.497 0.158,0.983 0.255,1.458 v 0 c 0.061,0.303 0.11,0.607 0.17,0.899 v 0 c 0.11,0.461 0.207,0.923 0.316,1.361 v 0 c 0.085,0.388 0.183,0.777 0.292,1.153 v 0 c 0.097,0.389 0.207,0.754 0.315,1.118 v 0 c 0.098,0.366 0.219,0.729 0.341,1.082 v 0 c 0.134,0.437 0.291,0.862 0.437,1.275 v 0 c 0.158,0.426 0.316,0.839 0.486,1.24 v 0 c 0.328,0.814 0.68,1.603 1.057,2.357 v 0 c 0.097,0.207 0.194,0.413 0.304,0.607 v 0 c 0.158,0.329 0.327,0.645 0.498,0.948 v 0 c 0.437,0.802 0.9,1.555 1.373,2.284 v 0 c 1.567,2.417 3.305,4.483 5.09,6.391 v 0 c 0.098,0.097 0.183,0.206 0.28,0.316 v 0 c 0.207,0.219 0.413,0.437 0.656,0.669 v 0 l 0.098,0.108 c 0.024,0.025 0.048,0.049 0.072,0.062 v 0 c 0.013,0.024 0.036,0.047 0.061,0.072 v 0 c 0.025,0.012 0.049,0.037 0.073,0.061 v 0 c 1.142,1.178 2.564,2.588 4.179,4.167 v 0 c 2.759,2.698 6.051,5.844 9.393,8.991 v 0 c 0.473,0.462 0.959,0.912 1.433,1.361 v 0 c 1.92,1.822 3.827,3.62 5.625,5.31 v 0 c 0.413,0.389 0.815,0.777 1.215,1.142 v 0 c 0.389,0.376 0.778,0.74 1.155,1.093 v 0 c 0.752,0.717 1.458,1.385 2.138,2.017 v 0 c 0.341,0.328 0.668,0.644 0.984,0.935 v 0 c 0.644,0.608 1.239,1.179 1.798,1.701 v 0 c 1.398,1.337 2.564,2.455 3.475,3.354 v 0 c 0.255,0.243 0.486,0.461 0.692,0.667 v 0 l -0.352,0.342 -7.654,7.18 c -1.215,1.008 -2.515,1.992 -3.924,2.904 v 0 c -0.608,-0.583 -1.325,-1.276 -2.138,-2.054" style="stroke: none; paint-order: fill; fill: url(&quot;#gradient-14&quot;); fill-opacity: 0.84;" id="path334"/></g></g></g></g><g id="g336"><g id="g338"><g id="g344"><g id="g346"><path d="m 294.79,281.656 c -0.012,-0.024 -0.036,-0.049 -0.061,-0.073 v 0 l -0.084,-0.085 c -0.231,-0.255 -0.462,-0.498 -0.706,-0.741 v 0 c -0.279,-0.352 -0.607,-0.681 -0.958,-0.984 v 0 c -0.936,-0.96 -2.552,-2.624 -4.606,-4.738 v 0 -0.013 c 0.013,-0.012 0.013,-0.012 0.025,-0.024 v 0 c 0.218,-0.352 0.45,-0.705 0.656,-1.081 v 0 c 0.51,-0.839 0.984,-1.726 1.433,-2.662 v 0 c 0.292,-0.595 0.572,-1.215 0.839,-1.845 v 0 c 0.132,-0.316 0.267,-0.645 0.389,-0.973 v 0 c 0.219,-0.522 0.413,-1.057 0.595,-1.616 v 0 c 0.498,-1.482 0.935,-3.062 1.3,-4.763 v 0 c 0.061,-0.255 0.108,-0.51 0.158,-0.765 v 0 c 0.013,-0.061 0.024,-0.109 0.037,-0.171 v 0 c 0.047,-0.267 0.096,-0.533 0.145,-0.802 v 0 c 0.109,-0.594 0.206,-1.214 0.291,-1.834 v 0 c 0.037,-0.255 0.073,-0.51 0.109,-0.777 v 0 c 0.098,-0.791 0.183,-1.604 0.257,-2.442 v 0 c 0.048,-0.474 0.084,-0.96 0.109,-1.458 v 0 c 0.024,-0.365 0.048,-0.717 0.06,-1.094 v 0 c 0.012,-0.073 0.012,-0.158 0.012,-0.242 v 0 c 0.013,-0.366 0.037,-0.73 0.037,-1.095 v 0 c 0.012,-0.364 0.025,-0.729 0.025,-1.105 v 0 c 0.011,-0.376 0.011,-0.753 0.011,-1.142 v 0 c 0,-0.608 -0.011,-1.203 -0.024,-1.798 v 0 c -0.012,-0.498 -0.024,-0.984 -0.049,-1.471 v 0 c 0,-0.133 -0.012,-0.266 -0.024,-0.4 v 0 c -0.012,-0.547 -0.048,-1.082 -0.097,-1.604 v 0 c -0.024,-0.449 -0.06,-0.888 -0.11,-1.312 v 0 c -0.024,-0.304 -0.048,-0.595 -0.084,-0.888 v 0 c -0.013,-0.157 -0.036,-0.315 -0.049,-0.461 v 0 h -0.012 c 0,0 -0.012,-0.084 -0.038,-0.243 v 0 c -0.266,-1.494 -1.845,-9.78 -4.919,-15.831 v 0 -0.012 c -4.411,-7.837 -11.239,-13.438 -19.258,-20.036 v 0 c -6.414,-5.261 -13.474,-11.068 -20.193,-18.796 v 0 c -6.719,7.728 -13.778,13.524 -20.193,18.796 v 0 c -3.22,2.65 -6.269,5.152 -9.064,7.716 v 0 c -3.706,3.426 -7.374,7.265 -10.206,12.32 v 0 c 0.037,0 0.075,0 0.112,0 v 0 c -4.806,0.074 -9.166,0.509 -13.307,1.324 v 0 c -0.047,0.012 -0.084,0.012 -0.133,0.024 v 0 c -1.688,0.328 -3.317,0.706 -4.872,1.155 v 0 c 3.9,-12.418 11.056,-20.303 17.714,-26.438 v 0 c 3.111,-2.868 6.331,-5.504 9.733,-8.311 v 0 c 8.115,-6.658 16.499,-13.547 23.74,-23.922 v 0 c 1.471,-2.128 3.888,-3.392 6.476,-3.392 v 0 c 2.576,0 5.005,1.264 6.476,3.392 v 0 c 7.241,10.387 15.624,17.264 23.74,23.934 v 0 c 10.948,8.991 22.222,18.262 27.422,34.737 v 0 c 0.499,1.555 0.936,3.183 1.313,4.871 v 0 c 0.036,0.147 0.061,0.279 0.085,0.426 v 0 c 0.863,3.924 1.373,8.188 1.543,12.721 v 0 c 0.025,0.474 0.037,0.96 0.049,1.445 v 0 c 0.012,0.68 0.024,1.362 0.024,2.054 v 0 c 0,0.766 -0.012,1.518 -0.024,2.26 v 0 c -0.012,0.364 -0.024,0.716 -0.037,1.082 v 0 c -0.024,0.813 -0.061,1.627 -0.121,2.429 v 0 c -0.049,0.802 -0.11,1.592 -0.182,2.381 v 0 c -0.013,0.146 -0.024,0.293 -0.049,0.437 v 0 c -0.074,0.791 -0.158,1.58 -0.268,2.346 v 0 c -0.012,0.097 -0.024,0.194 -0.036,0.291 v 0 c -0.084,0.656 -0.183,1.3 -0.291,1.932 v 0 c -0.037,0.231 -0.073,0.462 -0.122,0.681 v 0 c -0.122,0.716 -0.255,1.433 -0.413,2.138 v 0 c -0.169,0.814 -0.352,1.628 -0.558,2.43 v 0 c -0.207,0.79 -0.426,1.579 -0.656,2.357 v 0 c -0.123,0.388 -0.244,0.777 -0.366,1.154 v 0 c -0.121,0.389 -0.254,0.765 -0.388,1.154 v 0 c -0.657,1.896 -1.41,3.731 -2.272,5.528 v 0 c -0.158,0.328 -0.329,0.669 -0.498,1.009 v 0 c -1.179,2.345 -2.54,4.604 -4.083,6.804 v 0 c -0.219,0.316 -0.437,0.62 -0.656,0.923 v 0 c -0.133,0.17 -0.255,0.34 -0.376,0.498 v 0 c -1.362,-1.81 -2.856,-3.571 -4.472,-5.309 m -82.631,-56.557 c -0.509,0 -1.007,0.01 -1.504,0.012 v 0 c 0.496,-0.008 0.998,-0.012 1.504,-0.012" style="stroke: none; paint-order: fill; fill: url(&quot;#gradient-15&quot;); fill-opacity: 0.84;" id="path354"/></g></g></g></g><g id="g356"><g id="g358"><g id="g364"><g id="g366"><path d="m 300.172,329.49 c 0.682,-0.133 1.361,-0.183 2.042,-0.133 v 0 c -2.139,0.51 -4.653,0.886 -7.533,0.948 v 0 c 1.932,-0.183 3.766,-0.463 5.491,-0.815" style="stroke: none; paint-order: fill; fill: url(&quot;#gradient-16&quot;); fill-opacity: 0.84;" id="path374"/></g></g></g></g><g id="g376"><g id="g378"><g id="g384"><g id="g386"><path d="m 294.657,330.305 c 0.012,-0.062 0.012,-0.11 0.012,-0.172 v 0 c 0.049,-0.656 0.097,-1.311 0.121,-1.992 v 0 c 0,-0.121 0.013,-0.255 0.013,-0.389 v 0 c 0.024,-0.388 0.036,-0.789 0.036,-1.19 v 0 c 0.013,-0.571 0.024,-1.154 0.024,-1.75 v 0 c 0,-0.389 0,-0.777 -0.011,-1.154 v 0 c 0,-0.377 -0.013,-0.753 -0.025,-1.118 v 0 c -0.024,-0.875 -0.061,-1.713 -0.122,-2.527 v 0 c -0.024,-0.462 -0.06,-0.912 -0.096,-1.361 v 0 c -0.025,-0.353 -0.062,-0.705 -0.098,-1.056 v 0 c -0.109,-1.058 -0.243,-2.079 -0.401,-3.05 v 0 c -0.049,-0.352 -0.109,-0.693 -0.171,-1.034 v 0 c -0.279,-1.518 -0.594,-2.927 -0.971,-4.264 v 0 c -0.122,-0.425 -0.243,-0.85 -0.365,-1.252 v 0 c -0.06,-0.182 -0.121,-0.352 -0.17,-0.522 v 0 c -0.133,-0.413 -0.279,-0.826 -0.425,-1.227 v 0 c -0.17,-0.485 -0.352,-0.947 -0.548,-1.409 v 0 c -0.18,-0.45 -0.375,-0.899 -0.569,-1.325 v 0 c -0.207,-0.449 -0.413,-0.886 -0.632,-1.299 v 0 c -0.207,-0.426 -0.426,-0.827 -0.644,-1.228 v 0 c -0.45,-0.802 -0.9,-1.555 -1.374,-2.284 v 0 c -1.568,-2.393 -3.292,-4.447 -5.053,-6.33 v 0 l -0.062,-0.06 c -0.303,-0.341 -0.62,-0.657 -0.935,-0.985 v 0 c -0.024,-0.037 -0.048,-0.06 -0.085,-0.085 v 0 l -0.086,-0.097 -0.12,-0.122 c -0.025,-0.012 -0.037,-0.036 -0.05,-0.048 v 0 c -0.802,-0.827 -2.223,-2.272 -4.045,-4.143 v 0 -0.012 l -0.219,-0.219 c -0.121,-0.134 -0.255,-0.268 -0.389,-0.401 v 0 c -0.206,-0.219 -0.413,-0.437 -0.619,-0.656 v 0 c -0.219,-0.219 -0.437,-0.45 -0.656,-0.681 v 0 c -0.098,-0.085 -0.183,-0.17 -0.267,-0.267 v 0 c -2.856,-2.94 -6.331,-6.537 -9.915,-10.242 v 0 c -2.32,-2.406 -4.69,-4.848 -6.962,-7.205 v 0 c -0.753,-0.778 -1.507,-1.555 -2.235,-2.308 v 0 c -0.098,-0.098 -0.194,-0.195 -0.292,-0.292 v 0 c -0.632,-0.656 -1.251,-1.3 -1.847,-1.92 v 0 c -0.036,-0.036 -0.073,-0.072 -0.109,-0.109 v 0 c -0.596,-0.62 -1.179,-1.227 -1.737,-1.798 v 0 l -0.219,-0.219 c -0.208,-0.219 -0.424,-0.437 -0.632,-0.656 v 0 c -0.619,-0.644 -1.215,-1.264 -1.774,-1.847 v 0 c 1.543,-1.579 2.953,-2.989 4.119,-4.131 v 0 c 0.498,-0.486 0.935,-0.899 1.337,-1.275 v 0 l 0.035,-0.037 c 1.653,-1.543 3.428,-3.05 5.445,-4.447 v 0 c 0.29,-0.207 0.582,-0.401 0.886,-0.596 v 0 c 1.3,1.338 2.746,2.843 4.3,4.448 v 0 c 0.596,0.608 1.204,1.239 1.824,1.883 v 0 c 0.023,0.024 0.047,0.049 0.073,0.085 v 0 c 0.704,0.717 1.432,1.459 2.174,2.224 v 0 c 0.377,0.388 0.766,0.801 1.167,1.214 v 0 c 0.753,0.79 1.53,1.58 2.308,2.382 v 0 c 1.154,1.202 2.333,2.417 3.5,3.621 v 0 c 2.222,2.308 4.422,4.568 6.439,6.657 v 0 c 0.741,0.778 1.458,1.519 2.162,2.236 v 0 c 0.365,0.377 0.717,0.754 1.081,1.118 v 0 c 0.341,0.365 0.681,0.717 1.022,1.057 v 0 c 0.181,0.194 0.376,0.389 0.57,0.583 v 0 0.013 c 2.054,2.114 3.67,3.778 4.606,4.738 v 0 c 0.351,0.303 0.679,0.632 0.958,0.984 v 0 c 0.244,0.243 0.475,0.486 0.706,0.741 v 0 l 0.084,0.085 c 0.025,0.024 0.049,0.049 0.061,0.073 v 0 c 1.616,1.738 3.11,3.499 4.472,5.309 v 0 c -0.013,0 -0.013,0.013 -0.013,0.013 v 0 l 0.729,0.984 c 0.231,0.328 0.463,0.668 0.693,0.996 v 0 c 0.462,0.668 0.899,1.336 1.324,2.017 v 0 c 0.85,1.373 1.628,2.758 2.344,4.167 v 0 c 0.171,0.316 0.329,0.644 0.476,0.96 v 0 c 0.886,1.835 1.664,3.706 2.332,5.637 v 0 c 0.134,0.389 0.267,0.766 0.388,1.155 v 0 c 0.122,0.376 0.243,0.765 0.366,1.154 v 0 c 0.23,0.778 0.449,1.567 0.656,2.357 v 0 c 0.206,0.802 0.389,1.616 0.558,2.43 v 0 c 0.158,0.705 0.291,1.422 0.413,2.138 v 0 c 0.049,0.219 0.085,0.449 0.122,0.681 v 0 c 0.108,0.632 0.207,1.276 0.291,1.932 v 0 c 0.012,0.097 0.024,0.194 0.036,0.292 v 0 c 0.11,0.765 0.194,1.555 0.268,2.344 v 0 c 0.025,0.146 0.036,0.292 0.049,0.438 v 0 c 0.072,0.766 0.133,1.542 0.182,2.321 v 0 c 0.048,0.826 0.097,1.652 0.121,2.49 v 0 c 0.013,0.364 0.025,0.717 0.037,1.081 v 0 c 0.012,0.741 0.024,1.495 0.024,2.26 v 0 c 0,0.353 0,0.705 -0.012,1.045 v 0 c 0,0 -2.928,2.187 -8.432,3.5 v 0 c -0.681,-0.05 -1.36,0 -2.042,0.133 v 0 c -1.725,0.352 -3.559,0.632 -5.491,0.815 v 0 z" style="stroke: none; paint-order: fill; fill: url(&quot;#gradient-17&quot;); fill-opacity: 0.84;" id="path394"/></g></g></g></g><g id="g396"><g id="g398"><g id="g404"><g id="g406"><path d="m 189.293,325.845 c 0.013,-0.34 0.025,-0.68 0.049,-1.033 v 0 1.057 c -0.013,-0.012 -0.036,-0.012 -0.049,-0.024" style="stroke: none; paint-order: fill; fill: url(&quot;#gradient-18&quot;); fill-opacity: 0.84;" id="path414"/></g></g></g></g><g id="g416"><g id="g418"><g id="g424"><g id="g426"><path d="m 210.069,346.39 c -0.133,0 -0.266,0 -0.4,-0.012 v 0 c -0.146,0 -0.28,0 -0.414,-0.012 v 0 h -0.012 c -0.133,-0.292 -2.429,-5.018 -3.887,-15.928 v 0 l -0.013,-0.062 c 0,-0.024 -0.012,-0.048 -0.012,-0.071 v 0 c 0.292,0.023 0.584,0.06 0.887,0.071 v 0 c 0.34,0.037 0.68,0.062 1.02,0.086 v 0 c 0.535,0.037 1.07,0.06 1.604,0.085 v 0 c 0.183,0.012 0.365,0.024 0.559,0.024 v 0 c 0.899,0.037 1.823,0.049 2.758,0.049 v 0 c 0.389,0 0.766,0 1.154,-0.012 v 0 c 0.378,0 0.742,-0.012 1.118,-0.025 v 0 c 0.438,-0.012 0.863,-0.024 1.276,-0.048 v 0 c 0.388,-0.013 0.778,-0.036 1.154,-0.061 v 0 c 0.498,-0.025 0.985,-0.061 1.458,-0.109 v 0 c 0.462,-0.037 0.911,-0.073 1.349,-0.122 v 0 c 0.498,-0.06 0.972,-0.121 1.446,-0.182 v 0 c 0.45,-0.061 0.886,-0.122 1.312,-0.194 v 0 c 0.036,0 0.073,0 0.097,-0.013 v 0 c 0.413,-0.061 0.802,-0.134 1.191,-0.207 v 0 c 0.426,-0.072 0.826,-0.157 1.227,-0.243 v 0 c 0.437,-0.084 0.863,-0.181 1.288,-0.291 v 0 c 0.364,-0.085 0.717,-0.169 1.069,-0.267 v 0 c 0.656,-0.17 1.288,-0.365 1.908,-0.559 v 0 c 0.45,-0.146 0.899,-0.291 1.324,-0.449 v 0 c 0.584,-0.207 1.154,-0.426 1.701,-0.657 v 0 c 0.413,-0.17 0.814,-0.34 1.203,-0.522 v 0 h 0.012 c 0.413,-0.182 0.814,-0.377 1.202,-0.571 v 0 c 0.061,-0.036 0.122,-0.06 0.183,-0.097 v 0 c 0.377,-0.182 0.741,-0.376 1.106,-0.583 v 0 c 0.061,-0.037 0.109,-0.062 0.157,-0.086 v 0 c 0.741,-0.412 1.447,-0.838 2.127,-1.287 v 0 c 1.409,-0.912 2.709,-1.896 3.924,-2.904 v 0 c 0.85,-0.705 1.652,-1.421 2.43,-2.15 v 0 c 0.024,-0.025 0.049,-0.05 0.073,-0.062 v 0 c 0.049,-0.048 0.097,-0.084 0.146,-0.134 v 0 c 0.036,-0.047 0.073,-0.084 0.097,-0.097 v 0 l 0.121,-0.12 c 1.021,-0.985 2.698,-2.589 4.787,-4.617 v 0 l 0.352,-0.342 c 0.256,-0.242 0.511,-0.485 0.766,-0.74 v 0 c 0.45,-0.438 0.911,-0.887 1.385,-1.361 v 0 c 0.086,-0.073 0.171,-0.146 0.244,-0.23 v 0 c 0.521,-0.499 1.043,-1.009 1.591,-1.544 v 0 c 0.45,-0.437 0.924,-0.886 1.397,-1.361 v 0 c 0.498,-0.486 1.009,-0.983 1.531,-1.482 v 0 c 4.969,-4.847 10.328,-10.072 14.702,-14.288 v 0 c 0.692,-0.668 1.348,-1.3 1.98,-1.92 v 0 c 0.777,-0.741 1.519,-1.446 2.187,-2.089 v 0 c 0.341,-0.316 0.668,-0.632 0.984,-0.936 v 0 c 0.255,-0.243 0.511,-0.486 0.741,-0.693 v 0 c 0.024,-0.023 0.049,-0.048 0.074,-0.072 v 0 c 0.024,-0.025 0.047,-0.049 0.072,-0.061 v 0 c 1.822,1.871 3.243,3.316 4.045,4.143 v 0 c 0.013,0.012 0.025,0.036 0.05,0.048 v 0 l 0.12,0.122 0.086,0.097 c 0.037,0.025 0.061,0.048 0.085,0.085 v 0 c 0.315,0.328 0.632,0.644 0.935,0.985 v 0 l 0.062,0.06 c 1.761,1.883 3.485,3.937 5.053,6.33 v 0 c -1.117,1.057 -2.503,2.381 -4.069,3.888 v 0 c -0.304,0.292 -0.632,0.596 -0.96,0.912 v 0 c -4.508,4.361 -10.194,9.889 -15.127,14.7 v 0 c -0.644,0.633 -1.288,1.252 -1.907,1.86 v 0 c -0.935,0.899 -1.847,1.785 -2.71,2.637 v 0 c -0.523,0.51 -1.021,0.995 -1.506,1.458 v 0 c -2.491,2.417 -4.521,4.385 -5.808,5.613 v 0 c -0.45,0.558 -0.984,1.057 -1.567,1.457 v 0 c -0.013,0.013 -0.013,0.013 -0.025,0.013 v 0 c -0.207,0.194 -0.401,0.376 -0.596,0.546 v 0 c -0.473,0.413 -0.935,0.814 -1.408,1.203 v 0 c -0.766,0.644 -1.544,1.264 -2.334,1.847 v 0 c -0.073,0.073 -0.133,0.121 -0.218,0.182 v 0 h -0.012 c -0.097,0.073 -0.195,0.146 -0.292,0.218 v 0 c -0.389,0.28 -0.765,0.559 -1.154,0.839 v 0 c -0.511,0.352 -1.021,0.692 -1.531,1.033 v 0 c -0.668,0.437 -1.348,0.863 -2.041,1.276 v 0 c -0.401,0.23 -0.802,0.473 -1.215,0.692 v 0 c -0.413,0.231 -0.814,0.45 -1.227,0.668 v 0 c -0.413,0.219 -0.826,0.425 -1.251,0.632 v 0 c -0.414,0.206 -0.839,0.413 -1.264,0.608 v 0 c -0.741,0.34 -1.482,0.656 -2.248,0.972 v 0 c -1.628,0.668 -3.305,1.251 -5.03,1.75 v 0 c -0.68,0.206 -1.373,0.4 -2.066,0.583 v 0 c -0.06,0.011 -0.109,0.023 -0.17,0.036 v 0 c -0.777,0.206 -1.567,0.389 -2.357,0.547 v 0 c -0.583,0.133 -1.178,0.243 -1.774,0.352 v 0 c -0.084,0.012 -0.181,0.036 -0.267,0.048 v 0 c -0.279,0.049 -0.571,0.098 -0.862,0.146 v 0 c -0.608,0.097 -1.228,0.195 -1.86,0.28 v 0 c -0.121,0.012 -0.243,0.036 -0.363,0.049 v 0 c -0.706,0.097 -1.422,0.181 -2.151,0.242 v 0 c -0.219,0.025 -0.449,0.049 -0.668,0.074 v 0 c -0.729,0.06 -1.471,0.12 -2.212,0.17 v 0 c -0.814,0.047 -1.652,0.097 -2.49,0.121 v 0 c -0.28,0.012 -0.548,0.024 -0.827,0.024 v 0 c -0.084,0.012 -0.17,0.012 -0.254,0.012 v 0 c -0.742,0.012 -1.495,0.024 -2.261,0.024 v 0 c -0.704,0 -1.409,-0.012 -2.09,-0.024" style="stroke: none; paint-order: fill; fill: url(&quot;#gradient-19&quot;); fill-opacity: 0.84;" id="path434"/></g></g></g></g><g id="g436"><g id="g438"><g id="g444"><g id="g446"><path d="m 218.064,282.871 c -0.024,-0.024 -0.048,-0.049 -0.073,-0.061 v 0 c -0.025,-0.025 -0.048,-0.048 -0.061,-0.072 v 0 c -0.024,-0.013 -0.048,-0.037 -0.072,-0.062 v 0 l -0.098,-0.108 c -0.243,-0.232 -0.449,-0.45 -0.656,-0.669 v 0 c -0.097,-0.11 -0.182,-0.219 -0.28,-0.316 v 0 c -1.785,-1.908 -3.523,-3.974 -5.09,-6.391 v 0 c 2.26,-2.308 6.051,-6.33 10.012,-10.534 v 0 c 0.947,-1.008 1.907,-2.029 2.879,-3.049 v 0 c 0.973,-1.02 1.956,-2.065 2.928,-3.087 v 0 c 3.718,-3.936 7.411,-7.812 10.595,-11.068 v 0 c 0.011,0 0.023,0 0.034,0.01 v 0 l -0.022,-0.022 c 1.822,-1.871 3.475,-3.523 4.872,-4.885 v 0 c 0.571,-0.558 1.081,-1.045 1.556,-1.494 v 0 c 0.011,-0.012 0.011,-0.012 0.023,-0.012 v 0 c 0.037,-0.036 0.086,-0.072 0.121,-0.109 v 0 c 1.727,-1.604 3.476,-3.086 5.274,-4.423 v 0 c 0.486,-0.364 0.984,-0.729 1.47,-1.082 v 0 c 0.51,-0.339 1.008,-0.679 1.519,-1.02 v 0 c 0.668,-0.437 1.349,-0.862 2.041,-1.276 v 0 c 1.032,-0.607 2.077,-1.178 3.135,-1.725 v 0 c 0.704,-0.352 1.421,-0.704 2.15,-1.032 v 0 c 0.729,-0.329 1.458,-0.632 2.199,-0.936 v 0 c 0.742,-0.292 1.495,-0.571 2.248,-0.839 v 0 c 6.829,-2.38 14.409,-3.51 23.073,-3.51 v 0 c 0.279,0 0.547,0 0.813,0.012 v 0 h 0.304 c 0.182,0 0.305,0 0.499,0.012 v 0 c 3.074,6.051 4.653,14.337 4.919,15.831 v 0 c 0.026,0.159 0.038,0.243 0.038,0.243 v 0 c -0.523,-0.06 -1.057,-0.098 -1.592,-0.134 v 0 c -0.535,-0.036 -1.069,-0.073 -1.616,-0.097 v 0 c -1.094,-0.048 -2.223,-0.073 -3.365,-0.073 v 0 c -0.389,0 -0.778,0 -1.154,0.013 v 0 c -0.377,0 -0.753,0.012 -1.119,0.024 v 0 c -0.886,0.024 -1.749,0.06 -2.587,0.121 v 0 c -0.438,0.024 -0.875,0.062 -1.3,0.098 v 0 c -0.34,0.024 -0.669,0.06 -0.996,0.096 v 0 c -0.123,0.013 -0.243,0.024 -0.365,0.037 v 0 c -0.218,0.024 -0.437,0.049 -0.656,0.073 v 0 c -1.409,0.171 -2.734,0.376 -3.997,0.632 v 0 c -0.292,0.061 -0.584,0.121 -0.864,0.182 v 0 c -0.084,0.012 -0.169,0.036 -0.243,0.049 v 0 c -0.643,0.146 -1.263,0.291 -1.871,0.462 v 0 c -0.4,0.109 -0.788,0.218 -1.177,0.34 v 0 c -0.341,0.096 -0.681,0.206 -1.009,0.315 v 0 c -0.413,0.134 -0.814,0.267 -1.203,0.413 v 0 c -0.485,0.171 -0.961,0.353 -1.41,0.547 v 0 c -2.296,0.935 -4.313,2.03 -6.135,3.219 v 0 c -0.304,0.195 -0.596,0.389 -0.886,0.596 v 0 c -2.017,1.397 -3.792,2.904 -5.445,4.447 v 0 l -0.035,0.037 c -0.402,0.376 -0.839,0.789 -1.337,1.275 v 0 c -1.166,1.142 -2.576,2.552 -4.119,4.131 v 0 l -0.012,0.012 c -0.705,0.717 -1.434,1.471 -2.211,2.261 v 0 c -0.377,0.4 -0.778,0.813 -1.178,1.239 v 0 c -0.669,0.692 -1.361,1.409 -2.054,2.138 v 0 c -0.475,0.486 -0.935,0.972 -1.41,1.47 v 0 c -3.292,3.451 -6.731,7.095 -9.841,10.388 v 0 c -5.224,5.528 -8.857,9.38 -10.984,11.53 v 0 c -1.615,-1.579 -3.037,-2.989 -4.179,-4.167 m 20.12,-35.404 c 0,0 0,0 0,0" style="stroke: none; paint-order: fill; fill: url(&quot;#gradient-20&quot;); fill-opacity: 0.84;" id="path454"/></g></g></g></g><g id="g456"><g id="g458" clip-path="url(#clipPath462)"><g id="g464"><g id="g466"/><g id="g520"><g clip-path="url(#clipPath470)" id="g518"><g id="g516"><g clip-path="url(#clipPath474)" id="g514"><g id="g512"><g id="g504"/><g mask="url(#mask486)" id="g510"><g id="g508"><path d="m 308.428,343.686 c -1.628,0.498 -3.317,0.911 -5.091,1.275 l -1.13,0.219 c -0.376,0.073 -0.753,0.133 -1.142,0.194 -0.401,0.073 -0.801,0.134 -1.203,0.195 -1.397,0.206 -2.831,0.376 -4.3,0.51 -1.458,0.133 -2.953,0.219 -4.484,0.267 -0.036,0.012 -0.085,0.012 -0.134,0.012 -0.06,0 -0.133,0 -0.194,0.013 -0.741,1.591 -1.579,3.086 -2.503,4.507 l 13.62,8.019 c 2.686,-4.265 4.993,-9.246 6.561,-15.211" style="stroke: none; paint-order: fill; fill: url(&quot;#gradient-21&quot;); fill-opacity: 0.84;" id="path506"/></g></g></g></g></g></g></g></g><g id="g522"><g id="g524"/><g id="g578"><g clip-path="url(#clipPath528)" id="g576"><g id="g574"><g clip-path="url(#clipPath532)" id="g572"><g id="g570"><g id="g562"/><g mask="url(#mask544)" id="g568"><g id="g566"><path d="m 191.595,343.698 -0.012,-0.049 v -0.024 c -0.267,-0.753 -2.673,-8.153 -2.284,-17.788 -5.637,-2.916 -9.805,-6.84 -13.474,-10.825 l 5.929,24.725 c 2.952,1.543 6.208,2.891 9.841,3.961" style="stroke: none; paint-order: fill; fill: url(&quot;#gradient-22&quot;); fill-opacity: 0.84;" id="path564"/></g></g></g></g></g></g></g></g><g id="g580"><g id="g582"/><g id="g636"><g clip-path="url(#clipPath586)" id="g634"><g id="g632"><g clip-path="url(#clipPath590)" id="g630"><g id="g628"><g id="g620"/><g mask="url(#mask602)" id="g626"><g id="g624"><path d="m 319.022,251.419 -1.494,-20.01 c -2.952,-1.482 -6.22,-2.783 -9.878,-3.804 0.498,1.556 0.936,3.184 1.313,4.873 0.036,0.146 0.06,0.28 0.085,0.425 0.862,3.924 1.373,8.189 1.543,12.721 3.231,1.652 5.977,3.633 8.431,5.795" style="stroke: none; paint-order: fill; fill: url(&quot;#gradient-23&quot;); fill-opacity: 0.84;" id="path622"/></g></g></g></g></g></g></g></g><g id="g638"><g id="g640"/><g id="g694"><g clip-path="url(#clipPath644)" id="g692"><g id="g690"><g clip-path="url(#clipPath648)" id="g688"><g id="g686"><g id="g678"/><g mask="url(#mask660)" id="g684"><g id="g682"><path d="m 250.157,313.603 c -0.206,-0.207 -0.437,-0.426 -0.692,-0.669 -0.911,-0.899 -2.078,-2.017 -3.475,-3.353 l -18.614,4.155 c 0.159,0.146 0.329,0.292 0.486,0.45 2.43,2.284 4.787,4.52 6.792,6.415 0.231,0.218 0.438,0.425 0.657,0.631 0.121,0.11 0.23,0.219 0.339,0.316 0.146,0.146 0.292,0.28 0.438,0.426 0.814,0.777 1.531,1.47 2.138,2.053 1.41,-0.911 2.71,-1.896 3.925,-2.904 l 7.654,-7.181 z" style="stroke: none; paint-order: fill; fill: url(&quot;#gradient-24&quot;); fill-opacity: 0.84;" id="path680"/></g></g></g></g></g></g></g></g><g id="g696"><g id="g698"/><g id="g752"><g clip-path="url(#clipPath702)" id="g750"><g id="g748"><g clip-path="url(#clipPath706)" id="g746"><g id="g744"><g id="g736"/><g mask="url(#mask718)" id="g742"><g id="g740"><path d="m 205.58,241.263 v -0.074 c -0.268,0.025 -0.535,0.049 -0.79,0.085 -0.049,0 -0.097,0.012 -0.146,0.012 -8.468,1.107 -14.871,4.168 -15.224,4.338 -0.024,0.389 -0.036,0.777 -0.048,1.166 v 0.158 c -0.012,0.717 -0.024,1.447 -0.024,2.175 0,0.766 0.012,1.519 0.024,2.26 0.012,0.365 0.024,0.729 0.036,1.081 0.025,0.814 0.061,1.628 0.122,2.431 0.048,0.801 0.109,1.591 0.182,2.381 0.012,0.145 0.024,0.291 0.049,0.437 l 15.381,-8.59 c 0,-0.607 0.012,-1.203 0.025,-1.798 0.012,-0.498 0.024,-0.984 0.048,-1.471 0,-0.132 0.013,-0.266 0.025,-0.4 0.011,-0.547 0.048,-1.081 0.096,-1.616 0.037,-0.571 0.086,-1.13 0.146,-1.677 0.025,-0.279 0.049,-0.547 0.085,-0.813 v -0.013 c 0,-0.036 0,-0.061 0.013,-0.072" style="stroke: none; paint-order: fill; fill: url(&quot;#gradient-25&quot;); fill-opacity: 0.84;" id="path738"/></g></g></g></g></g></g></g></g><g id="g754"><g id="g756"/><g id="g810"><g clip-path="url(#clipPath760)" id="g808"><g id="g806"><g clip-path="url(#clipPath764)" id="g804"><g id="g802"><g id="g794"/><g mask="url(#mask776)" id="g800"><g id="g798"><path d="m 220.755,212.783 -23.753,4.143 c -1.798,3.147 -3.402,6.682 -4.653,10.679 1.555,-0.449 3.183,-0.826 4.872,-1.154 0.048,-0.012 0.085,-0.012 0.133,-0.023 4.568,-0.9 9.404,-1.337 14.811,-1.337 -0.547,0 -1.082,0.012 -1.616,0.012 2.831,-5.054 6.5,-8.894 10.206,-12.32" style="stroke: none; paint-order: fill; fill: url(&quot;#gradient-26&quot;); fill-opacity: 0.84;" id="path796"/></g></g></g></g></g></g></g></g><g id="g812"><g id="g814"/><g id="g868"><g clip-path="url(#clipPath818)" id="g866"><g id="g864"><g clip-path="url(#clipPath822)" id="g862"><g id="g860"><g id="g852"/><g mask="url(#mask834)" id="g858"><g id="g856"><path d="m 310.664,324.805 c 0,-0.766 -0.013,-1.519 -0.024,-2.26 -0.013,-0.365 -0.025,-0.717 -0.037,-1.082 -0.025,-0.838 -0.073,-1.664 -0.122,-2.49 l -16.366,-4.435 c 0.158,0.972 0.292,1.992 0.402,3.049 0.036,0.353 0.073,0.705 0.096,1.058 0.037,0.449 0.074,0.899 0.098,1.36 0.06,0.814 0.098,1.653 0.121,2.528 0.013,0.364 0.024,0.74 0.024,1.117 0.013,0.377 0.013,0.766 0.013,1.155 0,0.595 -0.013,1.178 -0.024,1.749 0,0.401 -0.013,0.802 -0.036,1.191 0,0.133 -0.013,0.267 -0.013,0.389 -0.025,0.68 -0.073,1.336 -0.121,1.992 0,0.061 0,0.109 -0.013,0.17 h 0.025 c 1.931,-0.182 3.766,-0.462 5.492,-0.814 0.679,-0.133 1.36,-0.182 2.041,-0.133 5.504,-1.312 8.431,-3.499 8.431,-3.499 0.013,-0.341 0.013,-0.693 0.013,-1.045" style="stroke: none; paint-order: fill; fill: url(&quot;#gradient-27&quot;); fill-opacity: 0.84;" id="path854"/></g></g></g></g></g></g></g></g><g id="g870"><g id="g872"/><g id="g926"><g clip-path="url(#clipPath876)" id="g924"><g id="g922"><g clip-path="url(#clipPath880)" id="g920"><g id="g918"><g id="g910"/><g mask="url(#mask892)" id="g916"><g id="g914"><path d="m 266.062,251.954 c -1.555,-1.603 -3.001,-3.11 -4.301,-4.447 -0.304,0.195 -0.596,0.389 -0.887,0.596 -2.018,1.397 -3.791,2.903 -5.443,4.446 l -0.037,0.037 c -0.401,0.376 -0.838,0.789 -1.336,1.276 -1.166,1.142 -2.577,2.551 -4.119,4.131 0.559,0.583 1.154,1.202 1.774,1.846 0.206,0.219 0.425,0.438 0.632,0.657 l 0.218,0.218 c 0.559,0.571 1.142,1.179 1.738,1.798 0.036,0.037 0.072,0.073 0.109,0.11 0.595,0.619 1.215,1.263 1.847,1.92 0.097,0.097 0.194,0.194 0.291,0.291 0.729,0.753 1.482,1.531 2.236,2.309 z" style="stroke: none; paint-order: fill; fill: url(&quot;#gradient-28&quot;); fill-opacity: 0.84;" id="path912"/></g></g></g></g></g></g></g></g><g id="g928"><g id="g930"/><g id="g984"><g clip-path="url(#clipPath934)" id="g982"><g id="g980"><g clip-path="url(#clipPath938)" id="g978"><g id="g976"><g id="g968"/><g mask="url(#mask950)" id="g974"><g id="g972"><path d="m 220.208,346.055 -10.801,-15.492 c -0.195,0 -0.377,-0.012 -0.559,-0.023 -0.535,-0.025 -1.069,-0.049 -1.604,-0.086 -0.34,-0.024 -0.68,-0.048 -1.02,-0.085 -0.304,-0.012 -0.596,-0.048 -0.888,-0.073 0,0.025 0.013,0.049 0.013,0.073 l 0.012,0.061 c 1.458,10.91 3.754,15.637 3.888,15.928 h 0.012 c 0.134,0.013 0.267,0.013 0.413,0.013 0.134,0.012 0.267,0.012 0.401,0.012 0.68,0.012 1.385,0.024 2.09,0.024 0.765,0 1.519,-0.012 2.26,-0.024 0.085,0 0.17,0 0.255,-0.012 0.279,0 0.547,-0.013 0.826,-0.025 0.838,-0.024 1.677,-0.073 2.491,-0.121 0.741,-0.049 1.482,-0.11 2.211,-0.17" style="stroke: none; paint-order: fill; fill: url(&quot;#gradient-29&quot;); fill-opacity: 0.84;" id="path970"/></g></g></g></g></g></g></g></g><g id="g986"><g id="g988"/><g id="g1042"><g clip-path="url(#clipPath992)" id="g1040"><g id="g1038"><g clip-path="url(#clipPath996)" id="g1036"><g id="g1034"><g id="g1026"/><g mask="url(#mask1008)" id="g1032"><g id="g1030"><path d="m 294.419,241.189 c 0,0 -0.012,-0.085 -0.036,-0.243 -0.268,-1.494 -1.847,-9.78 -4.921,-15.831 -0.194,-0.012 -0.316,-0.012 -0.498,-0.012 h -0.304 c -0.267,-0.012 -0.534,-0.012 -0.813,-0.012 -1.107,0 -2.188,0.024 -3.257,0.049 l 0.984,15.782 c 0.364,-0.012 0.741,-0.025 1.118,-0.025 0.376,-0.011 0.765,-0.011 1.155,-0.011 1.141,0 2.271,0.024 3.365,0.072 0.547,0.024 1.081,0.062 1.616,0.098 0.534,0.036 1.068,0.073 1.591,0.133" style="stroke: none; paint-order: fill; fill: url(&quot;#gradient-30&quot;); fill-opacity: 0.84;" id="path1028"/></g></g></g></g></g></g></g></g><g id="g1044"><g id="g1046"/><g id="g1100"><g clip-path="url(#clipPath1050)" id="g1098"><g id="g1096"><g clip-path="url(#clipPath1054)" id="g1094"><g id="g1092"><g id="g1084"/><g mask="url(#mask1066)" id="g1090"><g id="g1088"><path d="m 277.458,329.834 c -0.364,-0.048 -0.729,-0.109 -1.081,-0.182 -0.194,-0.036 -0.389,-0.072 -0.583,-0.109 -0.292,-0.049 -0.584,-0.109 -0.863,-0.17 -0.547,-0.122 -1.093,-0.243 -1.616,-0.377 -0.546,-0.145 -1.093,-0.291 -1.628,-0.449 -0.365,-0.097 -0.717,-0.207 -1.069,-0.328 -0.352,-0.11 -0.693,-0.231 -1.033,-0.353 -0.34,-0.121 -0.681,-0.242 -1.009,-0.376 -0.291,-0.11 -0.583,-0.219 -0.862,-0.353 -0.11,-0.036 -0.219,-0.073 -0.316,-0.121 -0.243,-0.109 -0.486,-0.207 -0.729,-0.328 -0.34,-0.146 -0.668,-0.292 -0.996,-0.462 -0.268,-0.122 -0.534,-0.255 -0.79,-0.401 -0.291,-0.146 -0.571,-0.291 -0.851,-0.45 -0.328,-0.182 -0.643,-0.352 -0.947,-0.546 -0.34,-0.195 -0.668,-0.401 -0.996,-0.608 -0.037,-0.024 -0.085,-0.048 -0.122,-0.073 -2.49,2.418 -4.52,4.387 -5.808,5.614 -0.449,0.559 -0.983,1.057 -1.567,1.458 -0.012,0.012 -0.012,0.012 -0.025,0.012 -0.206,0.194 -0.4,0.376 -0.594,0.546 -0.474,0.414 -0.936,0.815 -1.41,1.203 -0.765,0.644 -1.542,1.264 -2.333,1.847 -0.073,0.073 -0.133,0.122 -0.218,0.182 0.267,0.207 0.547,0.402 0.814,0.596 0.401,0.291 0.802,0.583 1.202,0.85 0.328,0.219 0.645,0.438 0.973,0.644 1.117,0.741 2.26,1.422 3.414,2.053 0.352,0.207 0.704,0.402 1.057,0.584 z" style="stroke: none; paint-order: fill; fill: url(&quot;#gradient-31&quot;); fill-opacity: 0.84;" id="path1086"/></g></g></g></g></g></g></g></g><g id="g1102"><g id="g1104"/><g id="g1158"><g clip-path="url(#clipPath1108)" id="g1156"><g id="g1154"><g clip-path="url(#clipPath1112)" id="g1152"><g id="g1150"><g id="g1142"/><g mask="url(#mask1124)" id="g1148"><g id="g1146"><path d="m 238.148,247.454 c 0,0 8.642,-8.684 11.858,-10.934 0,0 -6.004,-4.412 -10.315,-6.136 l -4.593,15.284 z" style="stroke: none; paint-order: fill; fill: url(&quot;#gradient-32&quot;); fill-opacity: 0.84;" id="path1144"/></g></g></g></g></g></g></g></g></g></g><g id="g1160" transform="matrix(1, 0, 0, 1, -77.9223, -132.74)"><g id="g1162" clip-path="url(#clipPath1166)"><g id="g1168"><g id="g1170"/><g id="g1194" mask="url(#mask1182)"><g id="g1196"><path d="m 211.734,275.192 5.225,-5.461 17.406,4.572 -12.122,12.735 c 0,0 -9.072,-8.628 -10.509,-11.846" style="stroke: none; paint-order: fill; fill: url(&quot;#gradient-33&quot;); fill-opacity: 0.84;" id="path1204"/></g></g></g></g></g><g id="g1206" transform="matrix(1, 0, 0, 1, -77.9223, -132.74)"><g id="g1208" clip-path="url(#clipPath1212)"><g id="g1214"><g id="g1216"/><g id="g1240" mask="url(#mask1228)"><g id="g1242"><path d="m 194.365,298.035 c 2.096,-5.478 6.385,-11.057 6.385,-11.057 v 0 c 1.007,1.993 10.948,11.845 10.948,11.845 v 0 c -0.879,0.98 -2.005,3.488 -2.005,3.488 v 0 z" style="stroke: none; paint-order: fill; fill: url(&quot;#gradient-34&quot;); fill-opacity: 0.84;" id="path1250"/></g></g></g></g></g><g id="g1252" transform="matrix(1, 0, 0, 1, -77.9223, -132.74)"><g id="g1254" clip-path="url(#clipPath1258)"><g id="g1260"><g id="g1262"/><g id="g1286" mask="url(#mask1274)"><g id="g1288"><path d="m 264.834,299.32 13.01,-12.502 c 0,0 8.178,7.968 10.397,11.884 v 0 l -5.554,5.307 z" style="stroke: none; paint-order: fill; fill: url(&quot;#gradient-35&quot;); fill-opacity: 0.84;" id="path1296"/></g></g></g></g></g><g id="g1298" transform="matrix(1, 0, 0, 1, -77.9223, -132.74)"><g id="g1300" clip-path="url(#clipPath1304)"><g id="g1306"><g id="g1308"/><g id="g1332" mask="url(#mask1320)"><g id="g1334"><path d="m 288.391,275.033 c 0.804,-1.349 2.005,-3.487 2.005,-3.487 v 0 l 15.328,4.275 c -2.096,5.478 -6.462,11.144 -6.462,11.144 v 0 c -1.354,-2.155 -10.871,-11.932 -10.871,-11.932" style="stroke: none; paint-order: fill; fill: url(&quot;#gradient-36&quot;); fill-opacity: 0.84;" id="path1342"/></g></g></g></g></g></g></svg>